999
dxfrw 0.5.11
0
SECTION
2
HEADER
9
$ACADVER
1
AC1021
9
$HANDSEED
5
20000
9
$DWGCODEPAGE
3
ANSI_1252
9
$INSBASE
10
0
20
0
30
0
9
$EXTMIN
10
-80
20
-493
30
0
9
$EXTMAX
10
1298
20
400
30
0
9
$LIMMIN
10
0
20
0
9
$LIMMAX
10
420
20
297
9
$ORTHOMODE
70
0
9
$LTSCALE
40
1
9
$TEXTSTYLE
7
STANDARD
9
$CLAYER
8
sud
9
$DIMASZ
40
2.5
9
$DIMLFAC
40
1
9
$DIMSCALE
40
1
9
$DIMEXO
40
0.625
9
$DIMEXE
40
1.25
9
$DIMTXT
40
2.5
9
$DIMTSZ
40
0
9
$DIMAUNIT
70
0
9
$DIMADEC
70
0
9
$DIMLUNIT
70
2
9
$DIMSTYLE
2
STANDARD
9
$DIMGAP
40
0.625
9
$DIMTIH
70
0
9
$LUNITS
70
2
9
$LUPREC
70
4
9
$AUNITS
70
0
9
$AUPREC
70
2
9
$SPLINESEGS
70
8
9
$GRIDMODE
70
1
9
$SNAPSTYLE
70
0
9
$PINSBASE
10
0
20
0
30
0
9
$PLIMMIN
10
0
20
0
9
$PLIMMAX
10
135483.6
20
191612.52
9
$INSUNITS
70
0
9
$PSVPSCALE
40
1
0
ENDSEC
0
SECTION
2
CLASSES
0
ENDSEC
0
SECTION
2
TABLES
0
TABLE
2
VPORT
5
8
330
0
100
AcDbSymbolTable
70
1
0
VPORT
5
31
330
2
100
AcDbSymbolTableRecord
100
AcDbViewportTableRecord
2
*ACTIVE
70
0
10
0
20
0
11
1
21
1
12
1223.96638266
22
658.423737047
13
0
23
0
14
10
24
10
15
10
25
10
16
0
26
0
36
1
17
0
27
0
37
0
40
2666.71933625
41
1.43962848297
42
50
43
0
44
0
50
0
51
0
71
0
72
100
73
1
74
3
75
0
76
1
77
0
78
0
281
0
65
1
110
0
120
0
130
0
111
1
121
0
131
0
112
0
122
1
132
0
79
0
146
0
348
10020
60
7
61
5
292
1
282
1
141
0
142
0
63
250
421
3358443
0
ENDTAB
0
TABLE
2
LTYPE
5
5
330
0
100
AcDbSymbolTable
70
4
0
LTYPE
5
14
330
5
100
AcDbSymbolTableRecord
100
AcDbLinetypeTableRecord
2
ByBlock
70
0
3

72
65
73
0
40
0
0
LTYPE
5
15
330
5
100
AcDbSymbolTableRecord
100
AcDbLinetypeTableRecord
2
ByLayer
70
0
3

72
65
73
0
40
0
0
LTYPE
5
16
330
5
100
AcDbSymbolTableRecord
100
AcDbLinetypeTableRecord
2
Continuous
70
0
3
Solid line
72
65
73
0
40
0
0
LTYPE
5
32
330
5
100
AcDbSymbolTableRecord
100
AcDbLinetypeTableRecord
2
DOT
70
0
3
Dot . . . . . . . . . . . . . . . . . . . . . .
72
65
73
2
40
6.35
49
0
74
0
49
-6.35
74
0
0
LTYPE
5
33
330
5
100
AcDbSymbolTableRecord
100
AcDbLinetypeTableRecord
2
DOT2
70
0
3
Dot (.5x) .....................................
72
65
73
2
40
3.175
49
0
74
0
49
-3.175
74
0
0
LTYPE
5
34
330
5
100
AcDbSymbolTableRecord
100
AcDbLinetypeTableRecord
2
DOTX2
70
0
3
Dot (2x) .  .  .  .  .  .  .  .  .  .  .  .  .
72
65
73
2
40
12.7
49
0
74
0
49
-12.7
74
0
0
LTYPE
5
35
330
5
100
AcDbSymbolTableRecord
100
AcDbLinetypeTableRecord
2
DASHED
70
0
3
Dot . . . . . . . . . . . . . . . . . . . . . .
72
65
73
2
40
19.05
49
12.7
74
0
49
-6.35
74
0
0
LTYPE
5
36
330
5
100
AcDbSymbolTableRecord
100
AcDbLinetypeTableRecord
2
DASHED2
70
0
3
Dashed (.5x) _ _ _ _ _ _ _ _ _ _ _ _ _ _ _ _ _
72
65
73
2
40
9.525
49
6.35
74
0
49
-3.175
74
0
0
LTYPE
5
37
330
5
100
AcDbSymbolTableRecord
100
AcDbLinetypeTableRecord
2
DASHEDX2
70
0
3
Dashed (2x) ____  ____  ____  ____  ____  ___
72
65
73
2
40
38.1
49
25.4
74
0
49
-12.7
74
0
0
LTYPE
5
38
330
5
100
AcDbSymbolTableRecord
100
AcDbLinetypeTableRecord
2
DASHDOT
70
0
3
Dash dot __ . __ . __ . __ . __ . __ . __ . __
72
65
73
4
40
25.4
49
12.7
74
0
49
-6.35
74
0
49
0
74
0
49
-6.35
74
0
0
LTYPE
5
39
330
5
100
AcDbSymbolTableRecord
100
AcDbLinetypeTableRecord
2
DASHDOT2
70
0
3
Dash dot (.5x) _._._._._._._._._._._._._._._.
72
65
73
4
40
12.7
49
6.35
74
0
49
-3.175
74
0
49
0
74
0
49
-3.175
74
0
0
LTYPE
5
3A
330
5
100
AcDbSymbolTableRecord
100
AcDbLinetypeTableRecord
2
DASHDOTX2
70
0
3
Dash dot (2x) ____  .  ____  .  ____  .  ___
72
65
73
4
40
50.8
49
25.4
74
0
49
-12.7
74
0
49
0
74
0
49
-12.7
74
0
0
LTYPE
5
3B
330
5
100
AcDbSymbolTableRecord
100
AcDbLinetypeTableRecord
2
DIVIDE
70
0
3
Divide ____ . . ____ . . ____ . . ____ . . ____
72
65
73
6
40
31.75
49
12.7
74
0
49
-6.35
74
0
49
0
74
0
49
-6.35
74
0
49
0
74
0
49
-6.35
74
0
0
LTYPE
5
3C
330
5
100
AcDbSymbolTableRecord
100
AcDbLinetypeTableRecord
2
DIVIDE2
70
0
3
Divide (.5x) __..__..__..__..__..__..__..__.._
72
65
73
6
40
15.875
49
6.35
74
0
49
-3.175
74
0
49
0
74
0
49
-3.175
74
0
49
0
74
0
49
-3.175
74
0
0
LTYPE
5
3D
330
5
100
AcDbSymbolTableRecord
100
AcDbLinetypeTableRecord
2
DIVIDEX2
70
0
3
Divide (2x) ________  .  .  ________  .  .  _
72
65
73
6
40
63.5
49
25.4
74
0
49
-12.7
74
0
49
0
74
0
49
-12.7
74
0
49
0
74
0
49
-12.7
74
0
0
LTYPE
5
3E
330
5
100
AcDbSymbolTableRecord
100
AcDbLinetypeTableRecord
2
BORDER
70
0
3
Border __ __ . __ __ . __ __ . __ __ . __ __ .
72
65
73
6
40
44.45
49
12.7
74
0
49
-6.35
74
0
49
12.7
74
0
49
-6.35
74
0
49
0
74
0
49
-6.35
74
0
0
LTYPE
5
3F
330
5
100
AcDbSymbolTableRecord
100
AcDbLinetypeTableRecord
2
BORDER2
70
0
3
Border (.5x) __.__.__.__.__.__.__.__.__.__.__.
72
65
73
6
40
22.225
49
6.35
74
0
49
-3.175
74
0
49
6.35
74
0
49
-3.175
74
0
49
0
74
0
49
-3.175
74
0
0
LTYPE
5
40
330
5
100
AcDbSymbolTableRecord
100
AcDbLinetypeTableRecord
2
BORDERX2
70
0
3
Border (2x) ____  ____  .  ____  ____  .  ___
72
65
73
6
40
88.9
49
25.4
74
0
49
-12.7
74
0
49
25.4
74
0
49
-12.7
74
0
49
0
74
0
49
-12.7
74
0
0
LTYPE
5
41
330
5
100
AcDbSymbolTableRecord
100
AcDbLinetypeTableRecord
2
CENTER
70
0
3
Center ____ _ ____ _ ____ _ ____ _ ____ _ ____
72
65
73
4
40
50.8
49
31.75
74
0
49
-6.35
74
0
49
6.35
74
0
49
-6.35
74
0
0
LTYPE
5
42
330
5
100
AcDbSymbolTableRecord
100
AcDbLinetypeTableRecord
2
CENTER2
70
0
3
Center (.5x) ___ _ ___ _ ___ _ ___ _ ___ _ ___
72
65
73
4
40
28.575
49
19.05
74
0
49
-3.175
74
0
49
3.175
74
0
49
-3.175
74
0
0
LTYPE
5
43
330
5
100
AcDbSymbolTableRecord
100
AcDbLinetypeTableRecord
2
CENTERX2
70
0
3
Center (2x) ________  __  ________  __  _____
72
65
73
4
40
101.6
49
63.5
74
0
49
-12.7
74
0
49
12.7
74
0
49
-12.7
74
0
0
ENDTAB
0
TABLE
2
LAYER
5
2
330
0
100
AcDbSymbolTable
70
1
0
LAYER
5
10
330
2
100
AcDbSymbolTableRecord
100
AcDbLayerTableRecord
2
0
70
0
62
7
6
CONTINUOUS
370
0
390
F
0
LAYER
5
44
330
2
100
AcDbSymbolTableRecord
100
AcDbLayerTableRecord
2
couvercle
70
0
62
7
6
CONTINUOUS
370
0
390
F
0
LAYER
5
45
330
2
100
AcDbSymbolTableRecord
100
AcDbLayerTableRecord
2
est
70
0
62
3
6
CONTINUOUS
370
0
390
F
0
LAYER
5
46
330
2
100
AcDbSymbolTableRecord
100
AcDbLayerTableRecord
2
fixation
70
0
62
4
6
CONTINUOUS
370
0
390
F
0
LAYER
5
47
330
2
100
AcDbSymbolTableRecord
100
AcDbLayerTableRecord
2
fond
70
0
62
7
6
CONTINUOUS
370
0
390
F
0
LAYER
5
48
330
2
100
AcDbSymbolTableRecord
100
AcDbLayerTableRecord
2
nord
70
0
62
3
6
CONTINUOUS
370
0
390
F
0
LAYER
5
49
330
2
100
AcDbSymbolTableRecord
100
AcDbLayerTableRecord
2
ouest
70
0
62
3
6
CONTINUOUS
370
0
390
F
0
LAYER
5
4A
330
2
100
AcDbSymbolTableRecord
100
AcDbLayerTableRecord
2
separateur
70
0
62
7
6
CONTINUOUS
370
0
390
F
0
LAYER
5
4B
330
2
100
AcDbSymbolTableRecord
100
AcDbLayerTableRecord
2
sud
70
0
62
3
6
CONTINUOUS
370
0
390
F
0
LAYER
5
4C
330
2
100
AcDbSymbolTableRecord
100
AcDbLayerTableRecord
2
tracés
70
5
62
16
420
8388608
6
CONTINUOUS
290
0
370
0
390
F
0
ENDTAB
0
TABLE
2
STYLE
5
3
330
0
100
AcDbSymbolTable
70
3
0
STYLE
5
4D
330
2
100
AcDbSymbolTableRecord
100
AcDbTextStyleTableRecord
2
Standard
70
0
40
0
41
1
50
0
71
0
42
1
3
txt
4

0
ENDTAB
0
TABLE
2
VIEW
5
6
330
0
100
AcDbSymbolTable
70
0
0
ENDTAB
0
TABLE
2
UCS
5
7
330
0
100
AcDbSymbolTable
70
0
0
ENDTAB
0
TABLE
2
APPID
5
9
330
0
100
AcDbSymbolTable
70
1
0
APPID
5
12
330
9
100
AcDbSymbolTableRecord
100
AcDbRegAppTableRecord
2
ACAD
70
0
0
ENDTAB
0
TABLE
2
DIMSTYLE
5
A
330
0
100
AcDbSymbolTable
70
1
100
AcDbDimStyleTable
71
1
0
DIMSTYLE
105
4E
330
A
100
AcDbSymbolTableRecord
100
AcDbDimStyleTableRecord
2
Standard
70
0
40
1
41
2.5
42
0.625
43
0.38
44
1.25
45
0
46
0
47
0
48
0
140
2.5
141
0.09
142
0
143
25.4
144
1
145
0
146
1
147
0.625
148
0
71
0
72
0
73
0
74
1
75
0
76
0
77
0
78
0
79
0
170
0
171
2
172
0
173
0
174
0
175
0
176
0
177
0
178
0
179
0
271
4
272
4
273
2
274
2
275
0
276
0
277
2
278
46
279
0
280
0
281
0
282
0
283
1
284
0
285
0
286
0
288
0
289
3
340
Standard
341

371
-2
372
-2
0
ENDTAB
0
TABLE
2
BLOCK_RECORD
5
1
330
0
100
AcDbSymbolTable
70
2
0
BLOCK_RECORD
5
1F
330
1
100
AcDbSymbolTableRecord
100
AcDbBlockTableRecord
2
*Model_Space
70
0
280
1
281
0
0
BLOCK_RECORD
5
1E
330
1
100
AcDbSymbolTableRecord
100
AcDbBlockTableRecord
2
*Paper_Space
70
0
280
1
281
0
0
BLOCK_RECORD
5
4F
330
1
100
AcDbSymbolTableRecord
100
AcDbBlockTableRecord
2
*D5
70
0
280
1
281
0
0
BLOCK_RECORD
5
52
330
1
100
AcDbSymbolTableRecord
100
AcDbBlockTableRecord
2
*D4
70
0
280
1
281
0
0
BLOCK_RECORD
5
55
330
1
100
AcDbSymbolTableRecord
100
AcDbBlockTableRecord
2
*D8
70
0
280
1
281
0
0
BLOCK_RECORD
5
58
330
1
100
AcDbSymbolTableRecord
100
AcDbBlockTableRecord
2
*D6
70
0
280
1
281
0
0
BLOCK_RECORD
5
5B
330
1
100
AcDbSymbolTableRecord
100
AcDbBlockTableRecord
2
*D10
70
0
280
1
281
0
0
BLOCK_RECORD
5
5E
330
1
100
AcDbSymbolTableRecord
100
AcDbBlockTableRecord
2
*D7
70
0
280
1
281
0
0
BLOCK_RECORD
5
61
330
1
100
AcDbSymbolTableRecord
100
AcDbBlockTableRecord
2
*D9
70
0
280
1
281
0
0
BLOCK_RECORD
5
64
330
1
100
AcDbSymbolTableRecord
100
AcDbBlockTableRecord
2
*D1
70
0
280
1
281
0
0
BLOCK_RECORD
5
67
330
1
100
AcDbSymbolTableRecord
100
AcDbBlockTableRecord
2
*D2
70
0
280
1
281
0
0
BLOCK_RECORD
5
6A
330
1
100
AcDbSymbolTableRecord
100
AcDbBlockTableRecord
2
*D3
70
0
280
1
281
0
0
ENDTAB
0
ENDSEC
0
SECTION
2
BLOCKS
0
BLOCK
5
20
330
1F
100
AcDbEntity
8
0
100
AcDbBlockBegin
2
*Model_Space
70
0
10
0
20
0
30
0
3
*Model_Space
1

0
ENDBLK
5
21
330
1F
100
AcDbEntity
8
0
100
AcDbBlockEnd
0
BLOCK
5
1C
330
1B
100
AcDbEntity
8
0
100
AcDbBlockBegin
2
*Paper_Space
70
0
10
0
20
0
30
0
3
*Paper_Space
1

0
ENDBLK
5
1D
330
1F
100
AcDbEntity
8
0
100
AcDbBlockEnd
0
BLOCK
5
50
330
4F
100
AcDbEntity
8
0
100
AcDbBlockBegin
2
*D5
70
1
10
0
20
0
3
*D5
1

0
LINE
5
6D
100
AcDbEntity
8
tracés
6
CONTINUOUS
62
7
370
0
100
AcDbLine
10
20
20
0
11
20
21
309
0
SOLID
5
6E
100
AcDbEntity
8
tracés
6
CONTINUOUS
62
7
370
0
100
AcDbTrace
10
20
20
0
30
0
11
19.5837153422
21
2.5
31
0
12
20.4162846578
22
2.5
32
0
13
20.4162846578
23
2.5
33
0
0
SOLID
5
6F
100
AcDbEntity
8
tracés
6
CONTINUOUS
62
7
370
0
100
AcDbTrace
10
20
20
309
30
0
11
20.4162846578
21
306.5
31
0
12
19.5837153422
22
306.5
32
0
13
19.5837153422
23
306.5
33
0
0
MTEXT
5
70
100
AcDbEntity
8
tracés
6
CONTINUOUS
62
7
370
0
100
AcDbMText
10
18.125
20
154.5
30
0
40
2.5
41
5
71
5
72
1
1
309
7
standard
210
0
220
0
230
1
50
90
73
2
44
1
0
LINE
5
71
100
AcDbEntity
8
tracés
6
CONTINUOUS
62
7
370
0
100
AcDbLine
10
19.375
20
7.65404249467e-17
11
18.75
21
1.53080849893e-16
0
LINE
5
72
100
AcDbEntity
8
tracés
6
CONTINUOUS
62
7
370
0
100
AcDbLine
10
19.375
20
309
11
18.75
21
309
0
ENDBLK
5
51
330
4F
100
AcDbEntity
8
0
100
AcDbBlockEnd
0
BLOCK
5
53
330
52
100
AcDbEntity
8
0
100
AcDbBlockBegin
2
*D4
70
1
10
0
20
0
3
*D4
1

0
LINE
5
73
100
AcDbEntity
8
tracés
6
CONTINUOUS
62
7
370
0
100
AcDbLine
10
208
20
90
11
303
21
90
0
SOLID
5
74
100
AcDbEntity
8
tracés
6
CONTINUOUS
62
7
370
0
100
AcDbTrace
10
208
20
90
30
0
11
210.5
21
90.4162846578
31
0
12
210.5
22
89.5837153422
32
0
13
210.5
23
89.5837153422
33
0
0
SOLID
5
75
100
AcDbEntity
8
tracés
6
CONTINUOUS
62
7
370
0
100
AcDbTrace
10
303
20
90
30
0
11
300.5
21
89.5837153422
31
0
12
300.5
22
90.4162846578
32
0
13
300.5
23
90.4162846578
33
0
0
MTEXT
5
76
100
AcDbEntity
8
tracés
6
CONTINUOUS
62
7
370
0
100
AcDbMText
10
255.5
20
91.875
30
0
40
2.5
41
3.05555555556
71
5
72
1
1
95
7
standard
210
0
220
0
230
1
50
0
73
2
44
1
0
LINE
5
77
100
AcDbEntity
8
tracés
6
CONTINUOUS
62
7
370
0
100
AcDbLine
10
208
20
90.625
11
208
21
91.25
0
LINE
5
78
100
AcDbEntity
8
tracés
6
CONTINUOUS
62
7
370
0
100
AcDbLine
10
303
20
90.625
11
303
21
91.25
0
ENDBLK
5
54
330
52
100
AcDbEntity
8
0
100
AcDbBlockEnd
0
BLOCK
5
56
330
55
100
AcDbEntity
8
0
100
AcDbBlockBegin
2
*D8
70
1
10
0
20
0
3
*D8
1

0
LINE
5
79
100
AcDbEntity
8
tracés
6
CONTINUOUS
62
7
370
0
100
AcDbLine
10
309
20
296
11
389
21
296
0
SOLID
5
7A
100
AcDbEntity
8
tracés
6
CONTINUOUS
62
7
370
0
100
AcDbTrace
10
309
20
296
30
0
11
311.5
21
296.416284658
31
0
12
311.5
22
295.583715342
32
0
13
311.5
23
295.583715342
33
0
0
SOLID
5
7B
100
AcDbEntity
8
tracés
6
CONTINUOUS
62
7
370
0
100
AcDbTrace
10
389
20
296
30
0
11
386.5
21
295.583715342
31
0
12
386.5
22
296.416284658
32
0
13
386.5
23
296.416284658
33
0
0
MTEXT
5
7C
100
AcDbEntity
8
tracés
6
CONTINUOUS
62
7
370
0
100
AcDbMText
10
349
20
297.875
30
0
40
2.5
41
3.05555555556
71
5
72
1
1
80
7
standard
210
0
220
0
230
1
50
0
73
2
44
1
0
LINE
5
7D
100
AcDbEntity
8
tracés
6
CONTINUOUS
62
7
370
0
100
AcDbLine
10
309
20
296.625
11
309
21
297.25
0
LINE
5
7E
100
AcDbEntity
8
tracés
6
CONTINUOUS
62
7
370
0
100
AcDbLine
10
389
20
296.625
11
389
21
297.25
0
ENDBLK
5
57
330
55
100
AcDbEntity
8
0
100
AcDbBlockEnd
0
BLOCK
5
59
330
58
100
AcDbEntity
8
0
100
AcDbBlockBegin
2
*D6
70
1
10
0
20
0
3
*D6
1

0
LINE
5
7F
100
AcDbEntity
8
tracés
6
CONTINUOUS
62
7
370
0
100
AcDbLine
10
235
20
306
11
235
21
3
0
SOLID
5
80
100
AcDbEntity
8
tracés
6
CONTINUOUS
62
7
370
0
100
AcDbTrace
10
235
20
306
30
0
11
235.416284658
21
303.5
31
0
12
234.583715342
22
303.5
32
0
13
234.583715342
23
303.5
33
0
0
SOLID
5
81
100
AcDbEntity
8
tracés
6
CONTINUOUS
62
7
370
0
100
AcDbTrace
10
235
20
3
30
0
11
234.583715342
21
5.5
31
0
12
235.416284658
22
5.5
32
0
13
235.416284658
23
5.5
33
0
0
MTEXT
5
82
100
AcDbEntity
8
tracés
6
CONTINUOUS
62
7
370
0
100
AcDbMText
10
233.125
20
154.5
30
0
40
2.5
41
5
71
5
72
1
1
303
7
standard
210
0
220
0
230
1
50
90
73
2
44
1
0
LINE
5
83
100
AcDbEntity
8
tracés
6
CONTINUOUS
62
7
370
0
100
AcDbLine
10
234.375
20
306
11
233.75
21
306
0
LINE
5
84
100
AcDbEntity
8
tracés
6
CONTINUOUS
62
7
370
0
100
AcDbLine
10
234.375
20
3
11
233.75
21
3
0
ENDBLK
5
5A
330
58
100
AcDbEntity
8
0
100
AcDbBlockEnd
0
BLOCK
5
5C
330
5B
100
AcDbEntity
8
0
100
AcDbBlockBegin
2
*D10
70
1
10
0
20
0
3
*D10
1

0
LINE
5
85
100
AcDbEntity
8
tracés
6
CONTINUOUS
62
7
370
0
100
AcDbLine
10
13
20
0
11
13
21
-77
0
SOLID
5
86
100
AcDbEntity
8
tracés
6
CONTINUOUS
62
7
370
0
100
AcDbTrace
10
13
20
0
30
0
11
13.4162846578
21
-2.5
31
0
12
12.5837153422
22
-2.5
32
0
13
12.5837153422
23
-2.5
33
0
0
SOLID
5
87
100
AcDbEntity
8
tracés
6
CONTINUOUS
62
7
370
0
100
AcDbTrace
10
13
20
-77
30
0
11
12.5837153422
21
-74.5
31
0
12
13.4162846578
22
-74.5
32
0
13
13.4162846578
23
-74.5
33
0
0
MTEXT
5
88
100
AcDbEntity
8
tracés
6
CONTINUOUS
62
7
370
0
100
AcDbMText
10
11.125
20
-38.5
30
0
40
2.5
41
3.05555555556
71
5
72
1
1
77
7
standard
210
0
220
0
230
1
50
90
73
2
44
1
0
LINE
5
89
100
AcDbEntity
8
tracés
6
CONTINUOUS
62
7
370
0
100
AcDbLine
10
12.375
20
7.65404249467e-17
11
11.75
21
1.53080849893e-16
0
LINE
5
8A
100
AcDbEntity
8
tracés
6
CONTINUOUS
62
7
370
0
100
AcDbLine
10
12.375
20
-77
11
11.75
21
-77
0
ENDBLK
5
5D
330
5B
100
AcDbEntity
8
0
100
AcDbBlockEnd
0
BLOCK
5
5F
330
5E
100
AcDbEntity
8
0
100
AcDbBlockBegin
2
*D7
70
1
10
0
20
0
3
*D7
1

0
LINE
5
8B
100
AcDbEntity
8
tracés
6
CONTINUOUS
62
7
370
0
100
AcDbLine
10
13
20
309
11
13
21
389
0
SOLID
5
8C
100
AcDbEntity
8
tracés
6
CONTINUOUS
62
7
370
0
100
AcDbTrace
10
13
20
309
30
0
11
12.5837153422
21
311.5
31
0
12
13.4162846578
22
311.5
32
0
13
13.4162846578
23
311.5
33
0
0
SOLID
5
8D
100
AcDbEntity
8
tracés
6
CONTINUOUS
62
7
370
0
100
AcDbTrace
10
13
20
389
30
0
11
13.4162846578
21
386.5
31
0
12
12.5837153422
22
386.5
32
0
13
12.5837153422
23
386.5
33
0
0
MTEXT
5
8E
100
AcDbEntity
8
tracés
6
CONTINUOUS
62
7
370
0
100
AcDbMText
10
11.125
20
349
30
0
40
2.5
41
3.05555555556
71
5
72
1
1
80
7
standard
210
0
220
0
230
1
50
90
73
2
44
1
0
LINE
5
8F
100
AcDbEntity
8
tracés
6
CONTINUOUS
62
7
370
0
100
AcDbLine
10
12.375
20
309
11
11.75
21
309
0
LINE
5
90
100
AcDbEntity
8
tracés
6
CONTINUOUS
62
7
370
0
100
AcDbLine
10
12.375
20
389
11
11.75
21
389
0
ENDBLK
5
60
330
5E
100
AcDbEntity
8
0
100
AcDbBlockEnd
0
BLOCK
5
62
330
61
100
AcDbEntity
8
0
100
AcDbBlockBegin
2
*D9
70
1
10
0
20
0
3
*D9
1

0
LINE
5
91
100
AcDbEntity
8
tracés
6
CONTINUOUS
62
7
370
0
100
AcDbLine
10
0
20
296
11
-80
21
296
0
SOLID
5
92
100
AcDbEntity
8
tracés
6
CONTINUOUS
62
7
370
0
100
AcDbTrace
10
0
20
296
30
0
11
-2.5
21
295.583715342
31
0
12
-2.5
22
296.416284658
32
0
13
-2.5
23
296.416284658
33
0
0
SOLID
5
93
100
AcDbEntity
8
tracés
6
CONTINUOUS
62
7
370
0
100
AcDbTrace
10
-80
20
296
30
0
11
-77.5
21
296.416284658
31
0
12
-77.5
22
295.583715342
32
0
13
-77.5
23
295.583715342
33
0
0
MTEXT
5
94
100
AcDbEntity
8
tracés
6
CONTINUOUS
62
7
370
0
100
AcDbMText
10
-40
20
297.875
30
0
40
2.5
41
3.05555555556
71
5
72
1
1
80
7
standard
210
0
220
0
230
1
50
360
73
2
44
1
0
LINE
5
95
100
AcDbEntity
8
tracés
6
CONTINUOUS
62
7
370
0
100
AcDbLine
10
3.82702124734e-17
20
296.625
11
7.65404249467e-17
21
297.25
0
LINE
5
96
100
AcDbEntity
8
tracés
6
CONTINUOUS
62
7
370
0
100
AcDbLine
10
-80
20
296.625
11
-80
21
297.25
0
ENDBLK
5
63
330
61
100
AcDbEntity
8
0
100
AcDbBlockEnd
0
BLOCK
5
65
330
64
100
AcDbEntity
8
0
100
AcDbBlockBegin
2
*D1
70
1
10
0
20
0
3
*D1
1

0
LINE
5
97
100
AcDbEntity
8
tracés
6
CONTINUOUS
62
7
370
0
100
AcDbLine
10
0
20
100
11
309
21
100
0
SOLID
5
98
100
AcDbEntity
8
tracés
6
CONTINUOUS
62
7
370
0
100
AcDbTrace
10
0
20
100
30
0
11
2.5
21
100.416284658
31
0
12
2.5
22
99.5837153422
32
0
13
2.5
23
99.5837153422
33
0
0
SOLID
5
99
100
AcDbEntity
8
tracés
6
CONTINUOUS
62
7
370
0
100
AcDbTrace
10
309
20
100
30
0
11
306.5
21
99.5837153422
31
0
12
306.5
22
100.416284658
32
0
13
306.5
23
100.416284658
33
0
0
MTEXT
5
9A
100
AcDbEntity
8
tracés
6
CONTINUOUS
62
7
370
0
100
AcDbMText
10
154.5
20
101.875
30
0
40
2.5
41
5
71
5
72
1
1
309
7
standard
210
0
220
0
230
1
50
0
73
2
44
1
0
LINE
5
9B
100
AcDbEntity
8
tracés
6
CONTINUOUS
62
7
370
0
100
AcDbLine
10
3.82702124734e-17
20
100.625
11
7.65404249467e-17
21
101.25
0
LINE
5
9C
100
AcDbEntity
8
tracés
6
CONTINUOUS
62
7
370
0
100
AcDbLine
10
309
20
100.625
11
309
21
101.25
0
ENDBLK
5
66
330
64
100
AcDbEntity
8
0
100
AcDbBlockEnd
0
BLOCK
5
68
330
67
100
AcDbEntity
8
0
100
AcDbBlockBegin
2
*D2
70
1
10
0
20
0
3
*D2
1

0
LINE
5
9D
100
AcDbEntity
8
tracés
6
CONTINUOUS
62
7
370
0
100
AcDbLine
10
6
20
90
11
101
21
90
0
SOLID
5
9E
100
AcDbEntity
8
tracés
6
CONTINUOUS
62
7
370
0
100
AcDbTrace
10
6
20
90
30
0
11
8.5
21
90.4162846578
31
0
12
8.5
22
89.5837153422
32
0
13
8.5
23
89.5837153422
33
0
0
SOLID
5
9F
100
AcDbEntity
8
tracés
6
CONTINUOUS
62
7
370
0
100
AcDbTrace
10
101
20
90
30
0
11
98.5
21
89.5837153422
31
0
12
98.5
22
90.4162846578
32
0
13
98.5
23
90.4162846578
33
0
0
MTEXT
5
A0
100
AcDbEntity
8
tracés
6
CONTINUOUS
62
7
370
0
100
AcDbMText
10
53.5
20
91.875
30
0
40
2.5
41
3.05555555556
71
5
72
1
1
95
7
standard
210
0
220
0
230
1
50
0
73
2
44
1
0
LINE
5
A1
100
AcDbEntity
8
tracés
6
CONTINUOUS
62
7
370
0
100
AcDbLine
10
6
20
90.625
11
6
21
91.25
0
LINE
5
A2
100
AcDbEntity
8
tracés
6
CONTINUOUS
62
7
370
0
100
AcDbLine
10
101
20
90.625
11
101
21
91.25
0
ENDBLK
5
69
330
67
100
AcDbEntity
8
0
100
AcDbBlockEnd
0
BLOCK
5
6B
330
6A
100
AcDbEntity
8
0
100
AcDbBlockBegin
2
*D3
70
1
10
0
20
0
3
*D3
1

0
LINE
5
A3
100
AcDbEntity
8
tracés
6
CONTINUOUS
62
7
370
0
100
AcDbLine
10
107
20
90
11
202
21
90
0
SOLID
5
A4
100
AcDbEntity
8
tracés
6
CONTINUOUS
62
7
370
0
100
AcDbTrace
10
107
20
90
30
0
11
109.5
21
90.4162846578
31
0
12
109.5
22
89.5837153422
32
0
13
109.5
23
89.5837153422
33
0
0
SOLID
5
A5
100
AcDbEntity
8
tracés
6
CONTINUOUS
62
7
370
0
100
AcDbTrace
10
202
20
90
30
0
11
199.5
21
89.5837153422
31
0
12
199.5
22
90.4162846578
32
0
13
199.5
23
90.4162846578
33
0
0
MTEXT
5
A6
100
AcDbEntity
8
tracés
6
CONTINUOUS
62
7
370
0
100
AcDbMText
10
154.5
20
91.875
30
0
40
2.5
41
3.05555555556
71
5
72
1
1
95
7
standard
210
0
220
0
230
1
50
0
73
2
44
1
0
LINE
5
A7
100
AcDbEntity
8
tracés
6
CONTINUOUS
62
7
370
0
100
AcDbLine
10
107
20
90.625
11
107
21
91.25
0
LINE
5
A8
100
AcDbEntity
8
tracés
6
CONTINUOUS
62
7
370
0
100
AcDbLine
10
202
20
90.625
11
202
21
91.25
0
ENDBLK
5
6C
330
6A
100
AcDbEntity
8
0
100
AcDbBlockEnd
0
ENDSEC
0
SECTION
2
ENTITIES
0
LINE
5
A9
100
AcDbEntity
8
tracés
6
ByLayer
62
256
370
-1
100
AcDbLine
10
0
20
40
11
6.12323399574e-17
21
41
0
LINE
5
AA
100
AcDbEntity
8
tracés
6
ByLayer
62
256
370
-1
100
AcDbLine
10
3
20
15
11
3
21
16
0
LINE
5
AB
100
AcDbEntity
8
tracés
6
ByLayer
62
256
370
-1
100
AcDbLine
10
6
20
15
11
6
21
16
0
LINE
5
AC
100
AcDbEntity
8
tracés
6
ByLayer
62
256
370
-1
100
AcDbLine
10
0
20
0
11
1
21
0
0
LINE
5
AD
100
AcDbEntity
8
tracés
6
ByLayer
62
256
370
-1
100
AcDbLine
10
12
20
3
11
13
21
3
0
LINE
5
AE
100
AcDbEntity
8
tracés
6
ByLayer
62
256
370
-1
100
AcDbLine
10
101
20
139
11
101
21
140
0
LINE
5
AF
100
AcDbEntity
8
tracés
6
ByLayer
62
256
370
-1
100
AcDbLine
10
104
20
147
11
104
21
148
0
LINE
5
B0
100
AcDbEntity
8
tracés
6
ByLayer
62
256
370
-1
100
AcDbLine
10
107
20
147
11
107
21
148
0
LINE
5
B1
100
AcDbEntity
8
tracés
6
ByLayer
62
256
370
-1
100
AcDbLine
10
202
20
129
11
202
21
130
0
LINE
5
B2
100
AcDbEntity
8
tracés
6
ByLayer
62
256
370
-1
100
AcDbLine
10
205
20
129
11
205
21
130
0
LINE
5
B3
100
AcDbEntity
8
tracés
6
ByLayer
62
256
370
-1
100
AcDbLine
10
208
20
129
11
208
21
130
0
LINE
5
B4
100
AcDbEntity
8
tracés
6
ByLayer
62
256
370
-1
100
AcDbLine
10
309
20
217
11
309
21
218
0
LINE
5
B5
100
AcDbEntity
8
tracés
6
ByLayer
62
256
370
-1
100
AcDbLine
10
306
20
130
11
306
21
131
0
LINE
5
B6
100
AcDbEntity
8
tracés
6
ByLayer
62
256
370
-1
100
AcDbLine
10
303
20
129
11
303
21
130
0
LINE
5
B7
100
AcDbEntity
8
tracés
6
ByLayer
62
256
370
-1
100
AcDbLine
10
11
20
309
11
12
21
309
0
LINE
5
B8
100
AcDbEntity
8
tracés
6
ByLayer
62
256
370
-1
100
AcDbLine
10
17
20
306
11
18
21
306
0
LINE
5
B9
100
AcDbEntity
8
tracés
6
ByLayer
62
256
370
-1
100
AcDbLine
10
320
20
40
11
320
21
41
0
DIMENSION
5
BA
100
AcDbEntity
8
tracés
6
ByLayer
62
256
370
-1
100
AcDbDimension
2
*D1
10
309
20
100
30
0
11
154.5
21
101.875
31
0
70
32
71
5
72
0
3
Standard
53
0
210
0
220
0
230
1
100
AcDbAlignedDimension
13
0
23
100
33
0
14
309
24
100
34
0
100
AcDbRotatedDimension
0
DIMENSION
5
BB
100
AcDbEntity
8
tracés
6
ByLayer
62
256
370
-1
100
AcDbDimension
2
*D2
10
101
20
90
30
0
11
53.5
21
91.875
31
0
70
32
71
5
72
0
3
Standard
53
0
210
0
220
0
230
1
100
AcDbAlignedDimension
13
6
23
90
33
0
14
101
24
90
34
0
100
AcDbRotatedDimension
0
DIMENSION
5
BC
100
AcDbEntity
8
tracés
6
ByLayer
62
256
370
-1
100
AcDbDimension
2
*D3
10
202
20
90
30
0
11
154.5
21
91.875
31
0
70
32
71
5
72
0
3
Standard
53
0
210
0
220
0
230
1
100
AcDbAlignedDimension
13
107
23
90
33
0
14
202
24
90
34
0
100
AcDbRotatedDimension
0
DIMENSION
5
BD
100
AcDbEntity
8
tracés
6
ByLayer
62
256
370
-1
100
AcDbDimension
2
*D4
10
303
20
90
30
0
11
255.5
21
91.875
31
0
70
32
71
5
72
0
3
Standard
53
0
210
0
220
0
230
1
100
AcDbAlignedDimension
13
208
23
90
33
0
14
303
24
90
34
0
100
AcDbRotatedDimension
0
LINE
5
BE
100
AcDbEntity
8
tracés
6
ByLayer
62
256
370
-1
100
AcDbLine
10
336
20
320
11
337
21
320
0
LINE
5
BF
100
AcDbEntity
8
tracés
6
ByLayer
62
256
370
-1
100
AcDbLine
10
316
20
400
11
317
21
400
0
DIMENSION
5
C0
100
AcDbEntity
8
tracés
6
ByLayer
62
256
370
-1
100
AcDbDimension
2
*D5
10
20
20
309
30
0
11
18.125
21
154.5
31
0
70
32
71
5
72
0
3
Standard
53
0
210
0
220
0
230
1
100
AcDbAlignedDimension
13
20
23
0
33
0
14
20
24
309
34
0
50
90
100
AcDbRotatedDimension
0
LINE
5
C1
100
AcDbEntity
8
tracés
6
ByLayer
62
256
370
-1
100
AcDbLine
10
-11
20
35
11
-11
21
36
0
LINE
5
C2
100
AcDbEntity
8
tracés
6
ByLayer
62
256
370
-1
100
AcDbLine
10
134
20
3
11
134
21
0
0
LINE
5
C3
100
AcDbEntity
8
tracés
6
ByLayer
62
256
370
-1
100
AcDbLine
10
134
20
0
11
175
21
0
0
LINE
5
C4
100
AcDbEntity
8
tracés
6
ByLayer
62
256
370
-1
100
AcDbLine
10
0
20
0
11
309
21
309
0
LINE
5
C5
100
AcDbEntity
8
tracés
6
ByLayer
62
256
370
-1
100
AcDbLine
10
1.64714994485e-14
20
309
11
309
21
0
0
DIMENSION
5
C6
100
AcDbEntity
8
tracés
6
ByLayer
62
256
370
-1
100
AcDbDimension
2
*D6
10
235
20
3
30
0
11
233.125
21
154.5
31
0
70
32
71
5
72
0
3
Standard
53
0
210
0
220
0
230
1
100
AcDbAlignedDimension
13
235
23
306
33
0
14
235
24
3
34
0
50
90
100
AcDbRotatedDimension
0
LINE
5
C7
100
AcDbEntity
8
fond
6
ByLayer
62
256
370
-1
100
AcDbLine
10
309
20
309
11
296
21
309
0
LINE
5
C8
100
AcDbEntity
8
fond
6
ByLayer
62
256
370
-1
100
AcDbLine
10
296
20
309
11
296
21
306
0
LINE
5
C9
100
AcDbEntity
8
fond
6
ByLayer
62
256
370
-1
100
AcDbLine
10
296
20
306
11
276
21
306
0
LINE
5
CA
100
AcDbEntity
8
fond
6
ByLayer
62
256
370
-1
100
AcDbLine
10
276
20
306
11
276
21
309
0
LINE
5
CB
100
AcDbEntity
8
fond
6
ByLayer
62
256
370
-1
100
AcDbLine
10
276
20
309
11
235
21
309
0
LINE
5
CC
100
AcDbEntity
8
fond
6
ByLayer
62
256
370
-1
100
AcDbLine
10
235
20
309
11
235
21
306
0
LINE
5
CD
100
AcDbEntity
8
fond
6
ByLayer
62
256
370
-1
100
AcDbLine
10
235
20
306
11
215
21
306
0
LINE
5
CE
100
AcDbEntity
8
fond
6
ByLayer
62
256
370
-1
100
AcDbLine
10
215
20
306
11
215
21
309
0
LINE
5
CF
100
AcDbEntity
8
fond
6
ByLayer
62
256
370
-1
100
AcDbLine
10
215
20
309
11
195
21
309
0
LINE
5
D0
100
AcDbEntity
8
fond
6
ByLayer
62
256
370
-1
100
AcDbLine
10
195
20
309
11
195
21
306
0
LINE
5
D1
100
AcDbEntity
8
fond
6
ByLayer
62
256
370
-1
100
AcDbLine
10
195
20
306
11
175
21
306
0
LINE
5
D2
100
AcDbEntity
8
fond
6
ByLayer
62
256
370
-1
100
AcDbLine
10
175
20
306
11
175
21
309
0
LINE
5
D3
100
AcDbEntity
8
fond
6
ByLayer
62
256
370
-1
100
AcDbLine
10
175
20
309
11
134
21
309
0
LINE
5
D4
100
AcDbEntity
8
fond
6
ByLayer
62
256
370
-1
100
AcDbLine
10
134
20
309
11
134
21
306
0
LINE
5
D5
100
AcDbEntity
8
fond
6
ByLayer
62
256
370
-1
100
AcDbLine
10
134
20
306
11
114
21
306
0
LINE
5
D6
100
AcDbEntity
8
fond
6
ByLayer
62
256
370
-1
100
AcDbLine
10
114
20
306
11
114
21
309
0
LINE
5
D7
100
AcDbEntity
8
fond
6
ByLayer
62
256
370
-1
100
AcDbLine
10
114
20
309
11
94
21
309
0
LINE
5
D8
100
AcDbEntity
8
fond
6
ByLayer
62
256
370
-1
100
AcDbLine
10
94
20
309
11
94
21
306
0
LINE
5
D9
100
AcDbEntity
8
fond
6
ByLayer
62
256
370
-1
100
AcDbLine
10
94
20
306
11
74
21
306
0
LINE
5
DA
100
AcDbEntity
8
fond
6
ByLayer
62
256
370
-1
100
AcDbLine
10
74
20
306
11
74
21
309
0
LINE
5
DB
100
AcDbEntity
8
fond
6
ByLayer
62
256
370
-1
100
AcDbLine
10
74
20
309
11
33
21
309
0
LINE
5
DC
100
AcDbEntity
8
fond
6
ByLayer
62
256
370
-1
100
AcDbLine
10
33
20
309
11
33
21
306
0
LINE
5
DD
100
AcDbEntity
8
fond
6
ByLayer
62
256
370
-1
100
AcDbLine
10
33
20
306
11
13
21
306
0
LINE
5
DE
100
AcDbEntity
8
fond
6
ByLayer
62
256
370
-1
100
AcDbLine
10
13
20
306
11
13
21
309
0
LINE
5
DF
100
AcDbEntity
8
fond
6
ByLayer
62
256
370
-1
100
AcDbLine
10
13
20
309
11
0
21
309
0
LINE
5
E0
100
AcDbEntity
8
fond
6
ByLayer
62
256
370
-1
100
AcDbLine
10
0
20
309
11
0
21
296
0
LINE
5
E1
100
AcDbEntity
8
fond
6
ByLayer
62
256
370
-1
100
AcDbLine
10
0
20
296
11
6
21
296
0
LINE
5
E2
100
AcDbEntity
8
fond
6
ByLayer
62
256
370
-1
100
AcDbLine
10
6
20
296
11
6
21
276
0
LINE
5
E3
100
AcDbEntity
8
fond
6
ByLayer
62
256
370
-1
100
AcDbLine
10
6
20
276
11
0
21
276
0
LINE
5
E4
100
AcDbEntity
8
fond
6
ByLayer
62
256
370
-1
100
AcDbLine
10
0
20
276
11
0
21
235
0
LINE
5
E5
100
AcDbEntity
8
fond
6
ByLayer
62
256
370
-1
100
AcDbLine
10
0
20
235
11
6
21
235
0
LINE
5
E6
100
AcDbEntity
8
fond
6
ByLayer
62
256
370
-1
100
AcDbLine
10
6
20
235
11
6
21
215
0
LINE
5
E7
100
AcDbEntity
8
fond
6
ByLayer
62
256
370
-1
100
AcDbLine
10
6
20
215
11
0
21
215
0
LINE
5
E8
100
AcDbEntity
8
fond
6
ByLayer
62
256
370
-1
100
AcDbLine
10
0
20
215
11
0
21
195
0
LINE
5
E9
100
AcDbEntity
8
fond
6
ByLayer
62
256
370
-1
100
AcDbLine
10
0
20
195
11
6
21
195
0
LINE
5
EA
100
AcDbEntity
8
fond
6
ByLayer
62
256
370
-1
100
AcDbLine
10
6
20
195
11
6
21
175
0
LINE
5
EB
100
AcDbEntity
8
fond
6
ByLayer
62
256
370
-1
100
AcDbLine
10
6
20
175
11
0
21
175
0
LINE
5
EC
100
AcDbEntity
8
fond
6
ByLayer
62
256
370
-1
100
AcDbLine
10
0
20
175
11
0
21
134
0
LINE
5
ED
100
AcDbEntity
8
fond
6
ByLayer
62
256
370
-1
100
AcDbLine
10
0
20
134
11
6
21
134
0
LINE
5
EE
100
AcDbEntity
8
fond
6
ByLayer
62
256
370
-1
100
AcDbLine
10
6
20
134
11
6
21
114
0
LINE
5
EF
100
AcDbEntity
8
fond
6
ByLayer
62
256
370
-1
100
AcDbLine
10
6
20
114
11
0
21
114
0
LINE
5
F0
100
AcDbEntity
8
fond
6
ByLayer
62
256
370
-1
100
AcDbLine
10
0
20
114
11
0
21
94
0
LINE
5
F1
100
AcDbEntity
8
fond
6
ByLayer
62
256
370
-1
100
AcDbLine
10
0
20
94
11
6
21
94
0
LINE
5
F2
100
AcDbEntity
8
fond
6
ByLayer
62
256
370
-1
100
AcDbLine
10
6
20
94
11
6
21
74
0
LINE
5
F3
100
AcDbEntity
8
fond
6
ByLayer
62
256
370
-1
100
AcDbLine
10
6
20
74
11
0
21
74
0
LINE
5
F4
100
AcDbEntity
8
fond
6
ByLayer
62
256
370
-1
100
AcDbLine
10
0
20
74
11
0
21
33
0
LINE
5
F5
100
AcDbEntity
8
fond
6
ByLayer
62
256
370
-1
100
AcDbLine
10
0
20
33
11
6
21
33
0
LINE
5
F6
100
AcDbEntity
8
fond
6
ByLayer
62
256
370
-1
100
AcDbLine
10
6
20
33
11
6
21
13
0
LINE
5
F7
100
AcDbEntity
8
fond
6
ByLayer
62
256
370
-1
100
AcDbLine
10
6
20
13
11
0
21
13
0
LINE
5
F8
100
AcDbEntity
8
fond
6
ByLayer
62
256
370
-1
100
AcDbLine
10
0
20
13
11
-2.4492935983e-15
21
0
0
LINE
5
F9
100
AcDbEntity
8
fond
6
ByLayer
62
256
370
-1
100
AcDbLine
10
-2.4492935983e-15
20
0
11
13
21
0
0
LINE
5
FA
100
AcDbEntity
8
fond
6
ByLayer
62
256
370
-1
100
AcDbLine
10
13
20
0
11
13
21
3
0
LINE
5
FB
100
AcDbEntity
8
fond
6
ByLayer
62
256
370
-1
100
AcDbLine
10
13
20
3
11
33
21
3
0
LINE
5
FC
100
AcDbEntity
8
fond
6
ByLayer
62
256
370
-1
100
AcDbLine
10
33
20
3
11
33
21
0
0
LINE
5
FD
100
AcDbEntity
8
fond
6
ByLayer
62
256
370
-1
100
AcDbLine
10
33
20
0
11
74
21
0
0
LINE
5
FE
100
AcDbEntity
8
fond
6
ByLayer
62
256
370
-1
100
AcDbLine
10
74
20
0
11
74
21
3
0
LINE
5
FF
100
AcDbEntity
8
fond
6
ByLayer
62
256
370
-1
100
AcDbLine
10
74
20
3
11
94
21
3
0
LINE
5
100
100
AcDbEntity
8
fond
6
ByLayer
62
256
370
-1
100
AcDbLine
10
94
20
3
11
94
21
0
0
LINE
5
101
100
AcDbEntity
8
fond
6
ByLayer
62
256
370
-1
100
AcDbLine
10
94
20
0
11
114
21
0
0
LINE
5
102
100
AcDbEntity
8
fond
6
ByLayer
62
256
370
-1
100
AcDbLine
10
114
20
0
11
114
21
3
0
LINE
5
103
100
AcDbEntity
8
fond
6
ByLayer
62
256
370
-1
100
AcDbLine
10
114
20
3
11
134
21
3
0
LINE
5
104
100
AcDbEntity
8
fond
6
ByLayer
62
256
370
-1
100
AcDbLine
10
134
20
3
11
134
21
0
0
LINE
5
105
100
AcDbEntity
8
fond
6
ByLayer
62
256
370
-1
100
AcDbLine
10
134
20
0
11
175
21
0
0
LINE
5
106
100
AcDbEntity
8
fond
6
ByLayer
62
256
370
-1
100
AcDbLine
10
175
20
0
11
175
21
3
0
LINE
5
107
100
AcDbEntity
8
fond
6
ByLayer
62
256
370
-1
100
AcDbLine
10
175
20
3
11
195
21
3
0
LINE
5
108
100
AcDbEntity
8
fond
6
ByLayer
62
256
370
-1
100
AcDbLine
10
195
20
3
11
195
21
0
0
LINE
5
109
100
AcDbEntity
8
fond
6
ByLayer
62
256
370
-1
100
AcDbLine
10
195
20
0
11
215
21
0
0
LINE
5
10A
100
AcDbEntity
8
fond
6
ByLayer
62
256
370
-1
100
AcDbLine
10
215
20
0
11
215
21
3
0
LINE
5
10B
100
AcDbEntity
8
fond
6
ByLayer
62
256
370
-1
100
AcDbLine
10
215
20
3
11
235
21
3
0
LINE
5
10C
100
AcDbEntity
8
fond
6
ByLayer
62
256
370
-1
100
AcDbLine
10
235
20
3
11
235
21
0
0
LINE
5
10D
100
AcDbEntity
8
fond
6
ByLayer
62
256
370
-1
100
AcDbLine
10
235
20
0
11
276
21
0
0
LINE
5
10E
100
AcDbEntity
8
fond
6
ByLayer
62
256
370
-1
100
AcDbLine
10
276
20
0
11
276
21
3
0
LINE
5
10F
100
AcDbEntity
8
fond
6
ByLayer
62
256
370
-1
100
AcDbLine
10
276
20
3
11
296
21
3
0
LINE
5
110
100
AcDbEntity
8
fond
6
ByLayer
62
256
370
-1
100
AcDbLine
10
296
20
3
11
296
21
0
0
LINE
5
111
100
AcDbEntity
8
fond
6
ByLayer
62
256
370
-1
100
AcDbLine
10
296
20
0
11
309
21
0
0
LINE
5
112
100
AcDbEntity
8
fond
6
ByLayer
62
256
370
-1
100
AcDbLine
10
309
20
0
11
309
21
13
0
LINE
5
113
100
AcDbEntity
8
fond
6
ByLayer
62
256
370
-1
100
AcDbLine
10
309
20
13
11
303
21
13
0
LINE
5
114
100
AcDbEntity
8
fond
6
ByLayer
62
256
370
-1
100
AcDbLine
10
303
20
13
11
303
21
33
0
LINE
5
115
100
AcDbEntity
8
fond
6
ByLayer
62
256
370
-1
100
AcDbLine
10
303
20
33
11
309
21
33
0
LINE
5
116
100
AcDbEntity
8
fond
6
ByLayer
62
256
370
-1
100
AcDbLine
10
309
20
33
11
309
21
74
0
LINE
5
117
100
AcDbEntity
8
fond
6
ByLayer
62
256
370
-1
100
AcDbLine
10
309
20
74
11
303
21
74
0
LINE
5
118
100
AcDbEntity
8
fond
6
ByLayer
62
256
370
-1
100
AcDbLine
10
303
20
74
11
303
21
94
0
LINE
5
119
100
AcDbEntity
8
fond
6
ByLayer
62
256
370
-1
100
AcDbLine
10
303
20
94
11
309
21
94
0
LINE
5
11A
100
AcDbEntity
8
fond
6
ByLayer
62
256
370
-1
100
AcDbLine
10
309
20
94
11
309
21
114
0
LINE
5
11B
100
AcDbEntity
8
fond
6
ByLayer
62
256
370
-1
100
AcDbLine
10
309
20
114
11
303
21
114
0
LINE
5
11C
100
AcDbEntity
8
fond
6
ByLayer
62
256
370
-1
100
AcDbLine
10
303
20
114
11
303
21
134
0
LINE
5
11D
100
AcDbEntity
8
fond
6
ByLayer
62
256
370
-1
100
AcDbLine
10
303
20
134
11
309
21
134
0
LINE
5
11E
100
AcDbEntity
8
fond
6
ByLayer
62
256
370
-1
100
AcDbLine
10
309
20
134
11
309
21
175
0
LINE
5
11F
100
AcDbEntity
8
fond
6
ByLayer
62
256
370
-1
100
AcDbLine
10
309
20
175
11
303
21
175
0
LINE
5
120
100
AcDbEntity
8
fond
6
ByLayer
62
256
370
-1
100
AcDbLine
10
303
20
175
11
303
21
195
0
LINE
5
121
100
AcDbEntity
8
fond
6
ByLayer
62
256
370
-1
100
AcDbLine
10
303
20
195
11
309
21
195
0
LINE
5
122
100
AcDbEntity
8
fond
6
ByLayer
62
256
370
-1
100
AcDbLine
10
309
20
195
11
309
21
215
0
LINE
5
123
100
AcDbEntity
8
fond
6
ByLayer
62
256
370
-1
100
AcDbLine
10
309
20
215
11
303
21
215
0
LINE
5
124
100
AcDbEntity
8
fond
6
ByLayer
62
256
370
-1
100
AcDbLine
10
303
20
215
11
303
21
235
0
LINE
5
125
100
AcDbEntity
8
fond
6
ByLayer
62
256
370
-1
100
AcDbLine
10
303
20
235
11
309
21
235
0
LINE
5
126
100
AcDbEntity
8
fond
6
ByLayer
62
256
370
-1
100
AcDbLine
10
309
20
235
11
309
21
276
0
LINE
5
127
100
AcDbEntity
8
fond
6
ByLayer
62
256
370
-1
100
AcDbLine
10
309
20
276
11
303
21
276
0
LINE
5
128
100
AcDbEntity
8
fond
6
ByLayer
62
256
370
-1
100
AcDbLine
10
303
20
276
11
303
21
296
0
LINE
5
129
100
AcDbEntity
8
fond
6
ByLayer
62
256
370
-1
100
AcDbLine
10
303
20
296
11
309
21
296
0
LINE
5
12A
100
AcDbEntity
8
fond
6
ByLayer
62
256
370
-1
100
AcDbLine
10
309
20
296
11
309
21
309
0
LINE
5
12B
100
AcDbEntity
8
est
6
ByLayer
62
256
370
-1
100
AcDbLine
10
389
20
3
11
389
21
309
0
LINE
5
12C
100
AcDbEntity
8
est
6
ByLayer
62
256
370
-1
100
AcDbLine
10
309
20
3
11
329
21
3
0
LINE
5
12D
100
AcDbEntity
8
est
6
ByLayer
62
256
370
-1
100
AcDbLine
10
329
20
3
11
329
21
0
0
LINE
5
12E
100
AcDbEntity
8
est
6
ByLayer
62
256
370
-1
100
AcDbLine
10
329
20
0
11
349
21
0
0
LINE
5
12F
100
AcDbEntity
8
est
6
ByLayer
62
256
370
-1
100
AcDbLine
10
349
20
0
11
349
21
3
0
LINE
5
130
100
AcDbEntity
8
est
6
ByLayer
62
256
370
-1
100
AcDbLine
10
349
20
3
11
369
21
3
0
LINE
5
131
100
AcDbEntity
8
est
6
ByLayer
62
256
370
-1
100
AcDbLine
10
369
20
3
11
369
21
0
0
LINE
5
132
100
AcDbEntity
8
est
6
ByLayer
62
256
370
-1
100
AcDbLine
10
369
20
0
11
389
21
0
0
LINE
5
133
100
AcDbEntity
8
est
6
ByLayer
62
256
370
-1
100
AcDbLine
10
389
20
0
11
389
21
3
0
LINE
5
134
100
AcDbEntity
8
est
6
ByLayer
62
256
370
-1
100
AcDbLine
10
309
20
306
11
329
21
306
0
LINE
5
135
100
AcDbEntity
8
est
6
ByLayer
62
256
370
-1
100
AcDbLine
10
329
20
306
11
329
21
309
0
LINE
5
136
100
AcDbEntity
8
est
6
ByLayer
62
256
370
-1
100
AcDbLine
10
329
20
309
11
349
21
309
0
LINE
5
137
100
AcDbEntity
8
est
6
ByLayer
62
256
370
-1
100
AcDbLine
10
349
20
309
11
349
21
306
0
LINE
5
138
100
AcDbEntity
8
est
6
ByLayer
62
256
370
-1
100
AcDbLine
10
349
20
306
11
369
21
306
0
LINE
5
139
100
AcDbEntity
8
est
6
ByLayer
62
256
370
-1
100
AcDbLine
10
369
20
306
11
369
21
309
0
LINE
5
13A
100
AcDbEntity
8
est
6
ByLayer
62
256
370
-1
100
AcDbLine
10
369
20
309
11
389
21
309
0
LINE
5
13B
100
AcDbEntity
8
est
6
ByLayer
62
256
370
-1
100
AcDbLine
10
309
20
3
11
309
21
13
0
LINE
5
13C
100
AcDbEntity
8
est
6
ByLayer
62
256
370
-1
100
AcDbLine
10
309
20
13
11
306
21
13
0
LINE
5
13D
100
AcDbEntity
8
est
6
ByLayer
62
256
370
-1
100
AcDbLine
10
306
20
13
11
306
21
33
0
LINE
5
13E
100
AcDbEntity
8
est
6
ByLayer
62
256
370
-1
100
AcDbLine
10
306
20
33
11
309
21
33
0
LINE
5
13F
100
AcDbEntity
8
est
6
ByLayer
62
256
370
-1
100
AcDbLine
10
309
20
33
11
309
21
74
0
LINE
5
140
100
AcDbEntity
8
est
6
ByLayer
62
256
370
-1
100
AcDbLine
10
309
20
74
11
306
21
74
0
LINE
5
141
100
AcDbEntity
8
est
6
ByLayer
62
256
370
-1
100
AcDbLine
10
306
20
74
11
306
21
94
0
LINE
5
142
100
AcDbEntity
8
est
6
ByLayer
62
256
370
-1
100
AcDbLine
10
306
20
94
11
309
21
94
0
LINE
5
143
100
AcDbEntity
8
est
6
ByLayer
62
256
370
-1
100
AcDbLine
10
309
20
94
11
309
21
114
0
LINE
5
144
100
AcDbEntity
8
est
6
ByLayer
62
256
370
-1
100
AcDbLine
10
309
20
114
11
306
21
114
0
LINE
5
145
100
AcDbEntity
8
est
6
ByLayer
62
256
370
-1
100
AcDbLine
10
306
20
114
11
306
21
134
0
LINE
5
146
100
AcDbEntity
8
est
6
ByLayer
62
256
370
-1
100
AcDbLine
10
306
20
134
11
309
21
134
0
LINE
5
147
100
AcDbEntity
8
est
6
ByLayer
62
256
370
-1
100
AcDbLine
10
309
20
134
11
309
21
175
0
LINE
5
148
100
AcDbEntity
8
est
6
ByLayer
62
256
370
-1
100
AcDbLine
10
309
20
175
11
306
21
175
0
LINE
5
149
100
AcDbEntity
8
est
6
ByLayer
62
256
370
-1
100
AcDbLine
10
306
20
175
11
306
21
195
0
LINE
5
14A
100
AcDbEntity
8
est
6
ByLayer
62
256
370
-1
100
AcDbLine
10
306
20
195
11
309
21
195
0
LINE
5
14B
100
AcDbEntity
8
est
6
ByLayer
62
256
370
-1
100
AcDbLine
10
309
20
195
11
309
21
215
0
LINE
5
14C
100
AcDbEntity
8
est
6
ByLayer
62
256
370
-1
100
AcDbLine
10
309
20
215
11
306
21
215
0
LINE
5
14D
100
AcDbEntity
8
est
6
ByLayer
62
256
370
-1
100
AcDbLine
10
306
20
215
11
306
21
235
0
LINE
5
14E
100
AcDbEntity
8
est
6
ByLayer
62
256
370
-1
100
AcDbLine
10
306
20
235
11
309
21
235
0
LINE
5
14F
100
AcDbEntity
8
est
6
ByLayer
62
256
370
-1
100
AcDbLine
10
309
20
235
11
309
21
276
0
LINE
5
150
100
AcDbEntity
8
est
6
ByLayer
62
256
370
-1
100
AcDbLine
10
309
20
276
11
306
21
276
0
LINE
5
151
100
AcDbEntity
8
est
6
ByLayer
62
256
370
-1
100
AcDbLine
10
306
20
276
11
306
21
296
0
LINE
5
152
100
AcDbEntity
8
est
6
ByLayer
62
256
370
-1
100
AcDbLine
10
306
20
296
11
309
21
296
0
LINE
5
153
100
AcDbEntity
8
est
6
ByLayer
62
256
370
-1
100
AcDbLine
10
309
20
296
11
309
21
306
0
LINE
5
154
100
AcDbEntity
8
ouest
6
ByLayer
62
256
370
-1
100
AcDbLine
10
-80
20
306
11
-80
21
0
0
LINE
5
155
100
AcDbEntity
8
ouest
6
ByLayer
62
256
370
-1
100
AcDbLine
10
0
20
306
11
-20
21
306
0
LINE
5
156
100
AcDbEntity
8
ouest
6
ByLayer
62
256
370
-1
100
AcDbLine
10
-20
20
306
11
-20
21
309
0
LINE
5
157
100
AcDbEntity
8
ouest
6
ByLayer
62
256
370
-1
100
AcDbLine
10
-20
20
309
11
-40
21
309
0
LINE
5
158
100
AcDbEntity
8
ouest
6
ByLayer
62
256
370
-1
100
AcDbLine
10
-40
20
309
11
-40
21
306
0
LINE
5
159
100
AcDbEntity
8
ouest
6
ByLayer
62
256
370
-1
100
AcDbLine
10
-40
20
306
11
-60
21
306
0
LINE
5
15A
100
AcDbEntity
8
ouest
6
ByLayer
62
256
370
-1
100
AcDbLine
10
-60
20
306
11
-60
21
309
0
LINE
5
15B
100
AcDbEntity
8
ouest
6
ByLayer
62
256
370
-1
100
AcDbLine
10
-60
20
309
11
-80
21
309
0
LINE
5
15C
100
AcDbEntity
8
ouest
6
ByLayer
62
256
370
-1
100
AcDbLine
10
-80
20
309
11
-80
21
306
0
LINE
5
15D
100
AcDbEntity
8
ouest
6
ByLayer
62
256
370
-1
100
AcDbLine
10
0
20
3
11
-20
21
3
0
LINE
5
15E
100
AcDbEntity
8
ouest
6
ByLayer
62
256
370
-1
100
AcDbLine
10
-20
20
3
11
-20
21
0
0
LINE
5
15F
100
AcDbEntity
8
ouest
6
ByLayer
62
256
370
-1
100
AcDbLine
10
-20
20
0
11
-40
21
0
0
LINE
5
160
100
AcDbEntity
8
ouest
6
ByLayer
62
256
370
-1
100
AcDbLine
10
-40
20
0
11
-40
21
3
0
LINE
5
161
100
AcDbEntity
8
ouest
6
ByLayer
62
256
370
-1
100
AcDbLine
10
-40
20
3
11
-60
21
3
0
LINE
5
162
100
AcDbEntity
8
ouest
6
ByLayer
62
256
370
-1
100
AcDbLine
10
-60
20
3
11
-60
21
0
0
LINE
5
163
100
AcDbEntity
8
ouest
6
ByLayer
62
256
370
-1
100
AcDbLine
10
-60
20
0
11
-80
21
0
0
LINE
5
164
100
AcDbEntity
8
ouest
6
ByLayer
62
256
370
-1
100
AcDbLine
10
0
20
306
11
0
21
296
0
LINE
5
165
100
AcDbEntity
8
ouest
6
ByLayer
62
256
370
-1
100
AcDbLine
10
0
20
296
11
3
21
296
0
LINE
5
166
100
AcDbEntity
8
ouest
6
ByLayer
62
256
370
-1
100
AcDbLine
10
3
20
296
11
3
21
276
0
LINE
5
167
100
AcDbEntity
8
ouest
6
ByLayer
62
256
370
-1
100
AcDbLine
10
3
20
276
11
0
21
276
0
LINE
5
168
100
AcDbEntity
8
ouest
6
ByLayer
62
256
370
-1
100
AcDbLine
10
0
20
276
11
0
21
235
0
LINE
5
169
100
AcDbEntity
8
ouest
6
ByLayer
62
256
370
-1
100
AcDbLine
10
0
20
235
11
3
21
235
0
LINE
5
16A
100
AcDbEntity
8
ouest
6
ByLayer
62
256
370
-1
100
AcDbLine
10
3
20
235
11
3
21
215
0
LINE
5
16B
100
AcDbEntity
8
ouest
6
ByLayer
62
256
370
-1
100
AcDbLine
10
3
20
215
11
0
21
215
0
LINE
5
16C
100
AcDbEntity
8
ouest
6
ByLayer
62
256
370
-1
100
AcDbLine
10
0
20
215
11
0
21
195
0
LINE
5
16D
100
AcDbEntity
8
ouest
6
ByLayer
62
256
370
-1
100
AcDbLine
10
0
20
195
11
3
21
195
0
LINE
5
16E
100
AcDbEntity
8
ouest
6
ByLayer
62
256
370
-1
100
AcDbLine
10
3
20
195
11
3
21
175
0
LINE
5
16F
100
AcDbEntity
8
ouest
6
ByLayer
62
256
370
-1
100
AcDbLine
10
3
20
175
11
0
21
175
0
LINE
5
170
100
AcDbEntity
8
ouest
6
ByLayer
62
256
370
-1
100
AcDbLine
10
0
20
175
11
0
21
134
0
LINE
5
171
100
AcDbEntity
8
ouest
6
ByLayer
62
256
370
-1
100
AcDbLine
10
0
20
134
11
3
21
134
0
LINE
5
172
100
AcDbEntity
8
ouest
6
ByLayer
62
256
370
-1
100
AcDbLine
10
3
20
134
11
3
21
114
0
LINE
5
173
100
AcDbEntity
8
ouest
6
ByLayer
62
256
370
-1
100
AcDbLine
10
3
20
114
11
0
21
114
0
LINE
5
174
100
AcDbEntity
8
ouest
6
ByLayer
62
256
370
-1
100
AcDbLine
10
0
20
114
11
0
21
94
0
LINE
5
175
100
AcDbEntity
8
ouest
6
ByLayer
62
256
370
-1
100
AcDbLine
10
0
20
94
11
3
21
94
0
LINE
5
176
100
AcDbEntity
8
ouest
6
ByLayer
62
256
370
-1
100
AcDbLine
10
3
20
94
11
3
21
74
0
LINE
5
177
100
AcDbEntity
8
ouest
6
ByLayer
62
256
370
-1
100
AcDbLine
10
3
20
74
11
0
21
74
0
LINE
5
178
100
AcDbEntity
8
ouest
6
ByLayer
62
256
370
-1
100
AcDbLine
10
0
20
74
11
0
21
33
0
LINE
5
179
100
AcDbEntity
8
ouest
6
ByLayer
62
256
370
-1
100
AcDbLine
10
0
20
33
11
3
21
33
0
LINE
5
17A
100
AcDbEntity
8
ouest
6
ByLayer
62
256
370
-1
100
AcDbLine
10
3
20
33
11
3
21
13
0
LINE
5
17B
100
AcDbEntity
8
ouest
6
ByLayer
62
256
370
-1
100
AcDbLine
10
3
20
13
11
0
21
13
0
LINE
5
17C
100
AcDbEntity
8
ouest
6
ByLayer
62
256
370
-1
100
AcDbLine
10
0
20
13
11
0
21
3
0
LINE
5
17D
100
AcDbEntity
8
sud
6
ByLayer
62
256
370
-1
100
AcDbLine
10
0
20
0
11
0
21
-20
0
LINE
5
17E
100
AcDbEntity
8
sud
6
ByLayer
62
256
370
-1
100
AcDbLine
10
0
20
-40
11
0
21
-60
0
LINE
5
17F
100
AcDbEntity
8
sud
6
ByLayer
62
256
370
-1
100
AcDbLine
10
309
20
0
11
309
21
-20
0
LINE
5
180
100
AcDbEntity
8
sud
6
ByLayer
62
256
370
-1
100
AcDbLine
10
309
20
-40
11
309
21
-60
0
LINE
5
181
100
AcDbEntity
8
sud
6
ByLayer
62
256
370
-1
100
AcDbLine
10
0
20
0
11
13
21
0
0
LINE
5
182
100
AcDbEntity
8
sud
6
ByLayer
62
256
370
-1
100
AcDbLine
10
13
20
0
11
13
21
3
0
LINE
5
183
100
AcDbEntity
8
sud
6
ByLayer
62
256
370
-1
100
AcDbLine
10
13
20
3
11
33
21
3
0
LINE
5
184
100
AcDbEntity
8
sud
6
ByLayer
62
256
370
-1
100
AcDbLine
10
33
20
3
11
33
21
0
0
LINE
5
185
100
AcDbEntity
8
sud
6
ByLayer
62
256
370
-1
100
AcDbLine
10
33
20
0
11
74
21
0
0
LINE
5
186
100
AcDbEntity
8
sud
6
ByLayer
62
256
370
-1
100
AcDbLine
10
74
20
0
11
74
21
3
0
LINE
5
187
100
AcDbEntity
8
sud
6
ByLayer
62
256
370
-1
100
AcDbLine
10
74
20
3
11
94
21
3
0
LINE
5
188
100
AcDbEntity
8
sud
6
ByLayer
62
256
370
-1
100
AcDbLine
10
94
20
3
11
94
21
0
0
LINE
5
189
100
AcDbEntity
8
sud
6
ByLayer
62
256
370
-1
100
AcDbLine
10
94
20
0
11
114
21
0
0
LINE
5
18A
100
AcDbEntity
8
sud
6
ByLayer
62
256
370
-1
100
AcDbLine
10
114
20
0
11
114
21
3
0
LINE
5
18B
100
AcDbEntity
8
sud
6
ByLayer
62
256
370
-1
100
AcDbLine
10
114
20
3
11
134
21
3
0
LINE
5
18C
100
AcDbEntity
8
sud
6
ByLayer
62
256
370
-1
100
AcDbLine
10
134
20
3
11
134
21
0
0
LINE
5
18D
100
AcDbEntity
8
sud
6
ByLayer
62
256
370
-1
100
AcDbLine
10
134
20
0
11
175
21
0
0
LINE
5
18E
100
AcDbEntity
8
sud
6
ByLayer
62
256
370
-1
100
AcDbLine
10
175
20
0
11
175
21
3
0
LINE
5
18F
100
AcDbEntity
8
sud
6
ByLayer
62
256
370
-1
100
AcDbLine
10
175
20
3
11
195
21
3
0
LINE
5
190
100
AcDbEntity
8
sud
6
ByLayer
62
256
370
-1
100
AcDbLine
10
195
20
3
11
195
21
0
0
LINE
5
191
100
AcDbEntity
8
sud
6
ByLayer
62
256
370
-1
100
AcDbLine
10
195
20
0
11
215
21
0
0
LINE
5
192
100
AcDbEntity
8
sud
6
ByLayer
62
256
370
-1
100
AcDbLine
10
215
20
0
11
215
21
3
0
LINE
5
193
100
AcDbEntity
8
sud
6
ByLayer
62
256
370
-1
100
AcDbLine
10
215
20
3
11
235
21
3
0
LINE
5
194
100
AcDbEntity
8
sud
6
ByLayer
62
256
370
-1
100
AcDbLine
10
235
20
3
11
235
21
0
0
LINE
5
195
100
AcDbEntity
8
sud
6
ByLayer
62
256
370
-1
100
AcDbLine
10
235
20
0
11
276
21
0
0
LINE
5
196
100
AcDbEntity
8
sud
6
ByLayer
62
256
370
-1
100
AcDbLine
10
276
20
0
11
276
21
3
0
LINE
5
197
100
AcDbEntity
8
sud
6
ByLayer
62
256
370
-1
100
AcDbLine
10
276
20
3
11
296
21
3
0
LINE
5
198
100
AcDbEntity
8
sud
6
ByLayer
62
256
370
-1
100
AcDbLine
10
296
20
3
11
296
21
0
0
LINE
5
199
100
AcDbEntity
8
sud
6
ByLayer
62
256
370
-1
100
AcDbLine
10
296
20
0
11
309
21
0
0
LINE
5
19A
100
AcDbEntity
8
sud
6
ByLayer
62
256
370
-1
100
AcDbLine
10
309
20
-20
11
303
21
-20
0
LINE
5
19B
100
AcDbEntity
8
sud
6
ByLayer
62
256
370
-1
100
AcDbLine
10
303
20
-20
11
303
21
-40
0
LINE
5
19C
100
AcDbEntity
8
sud
6
ByLayer
62
256
370
-1
100
AcDbLine
10
303
20
-40
11
309
21
-40
0
LINE
5
19D
100
AcDbEntity
8
sud
6
ByLayer
62
256
370
-1
100
AcDbLine
10
309
20
-60
11
303
21
-60
0
LINE
5
19E
100
AcDbEntity
8
sud
6
ByLayer
62
256
370
-1
100
AcDbLine
10
303
20
-60
11
303
21
-77
0
LINE
5
19F
100
AcDbEntity
8
sud
6
ByLayer
62
256
370
-1
100
AcDbLine
10
0
20
-40
11
6
21
-40
0
LINE
5
1A0
100
AcDbEntity
8
sud
6
ByLayer
62
256
370
-1
100
AcDbLine
10
6
20
-40
11
6
21
-20
0
LINE
5
1A1
100
AcDbEntity
8
sud
6
ByLayer
62
256
370
-1
100
AcDbLine
10
6
20
-20
11
0
21
-20
0
LINE
5
1A2
100
AcDbEntity
8
sud
6
ByLayer
62
256
370
-1
100
AcDbLine
10
0
20
-60
11
6
21
-60
0
LINE
5
1A3
100
AcDbEntity
8
sud
6
ByLayer
62
256
370
-1
100
AcDbLine
10
6
20
-60
11
6
21
-77
0
LINE
5
1A4
100
AcDbEntity
8
nord
6
ByLayer
62
256
370
-1
100
AcDbLine
10
3
20
389
11
306
21
389
0
LINE
5
1A5
100
AcDbEntity
8
nord
6
ByLayer
62
256
370
-1
100
AcDbLine
10
0
20
309
11
0
21
329
0
LINE
5
1A6
100
AcDbEntity
8
nord
6
ByLayer
62
256
370
-1
100
AcDbLine
10
0
20
349
11
0
21
369
0
LINE
5
1A7
100
AcDbEntity
8
nord
6
ByLayer
62
256
370
-1
100
AcDbLine
10
309
20
309
11
309
21
329
0
LINE
5
1A8
100
AcDbEntity
8
nord
6
ByLayer
62
256
370
-1
100
AcDbLine
10
309
20
349
11
309
21
369
0
LINE
5
1A9
100
AcDbEntity
8
nord
6
ByLayer
62
256
370
-1
100
AcDbLine
10
0
20
309
11
13
21
309
0
LINE
5
1AA
100
AcDbEntity
8
nord
6
ByLayer
62
256
370
-1
100
AcDbLine
10
13
20
309
11
13
21
306
0
LINE
5
1AB
100
AcDbEntity
8
nord
6
ByLayer
62
256
370
-1
100
AcDbLine
10
13
20
306
11
33
21
306
0
LINE
5
1AC
100
AcDbEntity
8
nord
6
ByLayer
62
256
370
-1
100
AcDbLine
10
33
20
306
11
33
21
309
0
LINE
5
1AD
100
AcDbEntity
8
nord
6
ByLayer
62
256
370
-1
100
AcDbLine
10
33
20
309
11
74
21
309
0
LINE
5
1AE
100
AcDbEntity
8
nord
6
ByLayer
62
256
370
-1
100
AcDbLine
10
74
20
309
11
74
21
306
0
LINE
5
1AF
100
AcDbEntity
8
nord
6
ByLayer
62
256
370
-1
100
AcDbLine
10
74
20
306
11
94
21
306
0
LINE
5
1B0
100
AcDbEntity
8
nord
6
ByLayer
62
256
370
-1
100
AcDbLine
10
94
20
306
11
94
21
309
0
LINE
5
1B1
100
AcDbEntity
8
nord
6
ByLayer
62
256
370
-1
100
AcDbLine
10
94
20
309
11
114
21
309
0
LINE
5
1B2
100
AcDbEntity
8
nord
6
ByLayer
62
256
370
-1
100
AcDbLine
10
114
20
309
11
114
21
306
0
LINE
5
1B3
100
AcDbEntity
8
nord
6
ByLayer
62
256
370
-1
100
AcDbLine
10
114
20
306
11
134
21
306
0
LINE
5
1B4
100
AcDbEntity
8
nord
6
ByLayer
62
256
370
-1
100
AcDbLine
10
134
20
306
11
134
21
309
0
LINE
5
1B5
100
AcDbEntity
8
nord
6
ByLayer
62
256
370
-1
100
AcDbLine
10
134
20
309
11
175
21
309
0
LINE
5
1B6
100
AcDbEntity
8
nord
6
ByLayer
62
256
370
-1
100
AcDbLine
10
175
20
309
11
175
21
306
0
LINE
5
1B7
100
AcDbEntity
8
nord
6
ByLayer
62
256
370
-1
100
AcDbLine
10
175
20
306
11
195
21
306
0
LINE
5
1B8
100
AcDbEntity
8
nord
6
ByLayer
62
256
370
-1
100
AcDbLine
10
195
20
306
11
195
21
309
0
LINE
5
1B9
100
AcDbEntity
8
nord
6
ByLayer
62
256
370
-1
100
AcDbLine
10
195
20
309
11
215
21
309
0
LINE
5
1BA
100
AcDbEntity
8
nord
6
ByLayer
62
256
370
-1
100
AcDbLine
10
215
20
309
11
215
21
306
0
LINE
5
1BB
100
AcDbEntity
8
nord
6
ByLayer
62
256
370
-1
100
AcDbLine
10
215
20
306
11
235
21
306
0
LINE
5
1BC
100
AcDbEntity
8
nord
6
ByLayer
62
256
370
-1
100
AcDbLine
10
235
20
306
11
235
21
309
0
LINE
5
1BD
100
AcDbEntity
8
nord
6
ByLayer
62
256
370
-1
100
AcDbLine
10
235
20
309
11
276
21
309
0
LINE
5
1BE
100
AcDbEntity
8
nord
6
ByLayer
62
256
370
-1
100
AcDbLine
10
276
20
309
11
276
21
306
0
LINE
5
1BF
100
AcDbEntity
8
nord
6
ByLayer
62
256
370
-1
100
AcDbLine
10
276
20
306
11
296
21
306
0
LINE
5
1C0
100
AcDbEntity
8
nord
6
ByLayer
62
256
370
-1
100
AcDbLine
10
296
20
306
11
296
21
309
0
LINE
5
1C1
100
AcDbEntity
8
nord
6
ByLayer
62
256
370
-1
100
AcDbLine
10
296
20
309
11
309
21
309
0
LINE
5
1C2
100
AcDbEntity
8
nord
6
ByLayer
62
256
370
-1
100
AcDbLine
10
0
20
369
11
6
21
369
0
LINE
5
1C3
100
AcDbEntity
8
nord
6
ByLayer
62
256
370
-1
100
AcDbLine
10
6
20
369
11
6
21
386
0
LINE
5
1C4
100
AcDbEntity
8
nord
6
ByLayer
62
256
370
-1
100
AcDbLine
10
6
20
386
11
3
21
386
0
LINE
5
1C5
100
AcDbEntity
8
nord
6
ByLayer
62
256
370
-1
100
AcDbLine
10
3
20
386
11
3
21
389
0
LINE
5
1C6
100
AcDbEntity
8
nord
6
ByLayer
62
256
370
-1
100
AcDbLine
10
0
20
329
11
6
21
329
0
LINE
5
1C7
100
AcDbEntity
8
nord
6
ByLayer
62
256
370
-1
100
AcDbLine
10
6
20
329
11
6
21
349
0
LINE
5
1C8
100
AcDbEntity
8
nord
6
ByLayer
62
256
370
-1
100
AcDbLine
10
6
20
349
11
0
21
349
0
LINE
5
1C9
100
AcDbEntity
8
nord
6
ByLayer
62
256
370
-1
100
AcDbLine
10
309
20
329
11
303
21
329
0
LINE
5
1CA
100
AcDbEntity
8
nord
6
ByLayer
62
256
370
-1
100
AcDbLine
10
303
20
329
11
303
21
349
0
LINE
5
1CB
100
AcDbEntity
8
nord
6
ByLayer
62
256
370
-1
100
AcDbLine
10
303
20
349
11
309
21
349
0
LINE
5
1CC
100
AcDbEntity
8
nord
6
ByLayer
62
256
370
-1
100
AcDbLine
10
309
20
369
11
303
21
369
0
LINE
5
1CD
100
AcDbEntity
8
nord
6
ByLayer
62
256
370
-1
100
AcDbLine
10
303
20
369
11
303
21
386
0
LINE
5
1CE
100
AcDbEntity
8
nord
6
ByLayer
62
256
370
-1
100
AcDbLine
10
303
20
386
11
306
21
386
0
LINE
5
1CF
100
AcDbEntity
8
nord
6
ByLayer
62
256
370
-1
100
AcDbLine
10
306
20
386
11
306
21
389
0
LINE
5
1D0
100
AcDbEntity
8
fond
6
ByLayer
62
256
370
-1
100
AcDbLine
10
202
20
296
11
208
21
296
0
LINE
5
1D1
100
AcDbEntity
8
fond
6
ByLayer
62
256
370
-1
100
AcDbLine
10
208
20
296
11
208
21
276
0
LINE
5
1D2
100
AcDbEntity
8
fond
6
ByLayer
62
256
370
-1
100
AcDbLine
10
208
20
276
11
202
21
276
0
LINE
5
1D3
100
AcDbEntity
8
fond
6
ByLayer
62
256
370
-1
100
AcDbLine
10
202
20
276
11
202
21
296
0
LINE
5
1D4
100
AcDbEntity
8
fond
6
ByLayer
62
256
370
-1
100
AcDbLine
10
202
20
235
11
208
21
235
0
LINE
5
1D5
100
AcDbEntity
8
fond
6
ByLayer
62
256
370
-1
100
AcDbLine
10
208
20
235
11
208
21
215
0
LINE
5
1D6
100
AcDbEntity
8
fond
6
ByLayer
62
256
370
-1
100
AcDbLine
10
208
20
215
11
202
21
215
0
LINE
5
1D7
100
AcDbEntity
8
fond
6
ByLayer
62
256
370
-1
100
AcDbLine
10
202
20
215
11
202
21
235
0
LINE
5
1D8
100
AcDbEntity
8
fond
6
ByLayer
62
256
370
-1
100
AcDbLine
10
202
20
195
11
208
21
195
0
LINE
5
1D9
100
AcDbEntity
8
fond
6
ByLayer
62
256
370
-1
100
AcDbLine
10
208
20
195
11
208
21
175
0
LINE
5
1DA
100
AcDbEntity
8
fond
6
ByLayer
62
256
370
-1
100
AcDbLine
10
208
20
175
11
202
21
175
0
LINE
5
1DB
100
AcDbEntity
8
fond
6
ByLayer
62
256
370
-1
100
AcDbLine
10
202
20
175
11
202
21
195
0
LINE
5
1DC
100
AcDbEntity
8
fond
6
ByLayer
62
256
370
-1
100
AcDbLine
10
202
20
134
11
208
21
134
0
LINE
5
1DD
100
AcDbEntity
8
fond
6
ByLayer
62
256
370
-1
100
AcDbLine
10
208
20
134
11
208
21
114
0
LINE
5
1DE
100
AcDbEntity
8
fond
6
ByLayer
62
256
370
-1
100
AcDbLine
10
208
20
114
11
202
21
114
0
LINE
5
1DF
100
AcDbEntity
8
fond
6
ByLayer
62
256
370
-1
100
AcDbLine
10
202
20
114
11
202
21
134
0
LINE
5
1E0
100
AcDbEntity
8
fond
6
ByLayer
62
256
370
-1
100
AcDbLine
10
202
20
94
11
208
21
94
0
LINE
5
1E1
100
AcDbEntity
8
fond
6
ByLayer
62
256
370
-1
100
AcDbLine
10
208
20
94
11
208
21
74
0
LINE
5
1E2
100
AcDbEntity
8
fond
6
ByLayer
62
256
370
-1
100
AcDbLine
10
208
20
74
11
202
21
74
0
LINE
5
1E3
100
AcDbEntity
8
fond
6
ByLayer
62
256
370
-1
100
AcDbLine
10
202
20
74
11
202
21
94
0
LINE
5
1E4
100
AcDbEntity
8
fond
6
ByLayer
62
256
370
-1
100
AcDbLine
10
202
20
33
11
208
21
33
0
LINE
5
1E5
100
AcDbEntity
8
fond
6
ByLayer
62
256
370
-1
100
AcDbLine
10
208
20
33
11
208
21
13
0
LINE
5
1E6
100
AcDbEntity
8
fond
6
ByLayer
62
256
370
-1
100
AcDbLine
10
208
20
13
11
202
21
13
0
LINE
5
1E7
100
AcDbEntity
8
fond
6
ByLayer
62
256
370
-1
100
AcDbLine
10
202
20
13
11
202
21
33
0
LINE
5
1E8
100
AcDbEntity
8
fond
6
ByLayer
62
256
370
-1
100
AcDbLine
10
101
20
33
11
107
21
33
0
LINE
5
1E9
100
AcDbEntity
8
fond
6
ByLayer
62
256
370
-1
100
AcDbLine
10
107
20
33
11
107
21
13
0
LINE
5
1EA
100
AcDbEntity
8
fond
6
ByLayer
62
256
370
-1
100
AcDbLine
10
107
20
13
11
101
21
13
0
LINE
5
1EB
100
AcDbEntity
8
fond
6
ByLayer
62
256
370
-1
100
AcDbLine
10
101
20
13
11
101
21
33
0
LINE
5
1EC
100
AcDbEntity
8
fond
6
ByLayer
62
256
370
-1
100
AcDbLine
10
101
20
94
11
107
21
94
0
LINE
5
1ED
100
AcDbEntity
8
fond
6
ByLayer
62
256
370
-1
100
AcDbLine
10
107
20
94
11
107
21
74
0
LINE
5
1EE
100
AcDbEntity
8
fond
6
ByLayer
62
256
370
-1
100
AcDbLine
10
107
20
74
11
101
21
74
0
LINE
5
1EF
100
AcDbEntity
8
fond
6
ByLayer
62
256
370
-1
100
AcDbLine
10
101
20
74
11
101
21
94
0
LINE
5
1F0
100
AcDbEntity
8
fond
6
ByLayer
62
256
370
-1
100
AcDbLine
10
101
20
134
11
107
21
134
0
LINE
5
1F1
100
AcDbEntity
8
fond
6
ByLayer
62
256
370
-1
100
AcDbLine
10
107
20
134
11
107
21
114
0
LINE
5
1F2
100
AcDbEntity
8
fond
6
ByLayer
62
256
370
-1
100
AcDbLine
10
107
20
114
11
101
21
114
0
LINE
5
1F3
100
AcDbEntity
8
fond
6
ByLayer
62
256
370
-1
100
AcDbLine
10
101
20
114
11
101
21
134
0
LINE
5
1F4
100
AcDbEntity
8
fond
6
ByLayer
62
256
370
-1
100
AcDbLine
10
101
20
195
11
107
21
195
0
LINE
5
1F5
100
AcDbEntity
8
fond
6
ByLayer
62
256
370
-1
100
AcDbLine
10
107
20
195
11
107
21
175
0
LINE
5
1F6
100
AcDbEntity
8
fond
6
ByLayer
62
256
370
-1
100
AcDbLine
10
107
20
175
11
101
21
175
0
LINE
5
1F7
100
AcDbEntity
8
fond
6
ByLayer
62
256
370
-1
100
AcDbLine
10
101
20
175
11
101
21
195
0
LINE
5
1F8
100
AcDbEntity
8
fond
6
ByLayer
62
256
370
-1
100
AcDbLine
10
101
20
235
11
107
21
235
0
LINE
5
1F9
100
AcDbEntity
8
fond
6
ByLayer
62
256
370
-1
100
AcDbLine
10
107
20
235
11
107
21
215
0
LINE
5
1FA
100
AcDbEntity
8
fond
6
ByLayer
62
256
370
-1
100
AcDbLine
10
107
20
215
11
101
21
215
0
LINE
5
1FB
100
AcDbEntity
8
fond
6
ByLayer
62
256
370
-1
100
AcDbLine
10
101
20
215
11
101
21
235
0
LINE
5
1FC
100
AcDbEntity
8
fond
6
ByLayer
62
256
370
-1
100
AcDbLine
10
101
20
296
11
107
21
296
0
LINE
5
1FD
100
AcDbEntity
8
fond
6
ByLayer
62
256
370
-1
100
AcDbLine
10
107
20
296
11
107
21
276
0
LINE
5
1FE
100
AcDbEntity
8
fond
6
ByLayer
62
256
370
-1
100
AcDbLine
10
107
20
276
11
101
21
276
0
LINE
5
1FF
100
AcDbEntity
8
fond
6
ByLayer
62
256
370
-1
100
AcDbLine
10
101
20
276
11
101
21
296
0
DIMENSION
5
200
100
AcDbEntity
8
tracés
6
ByLayer
62
256
370
-1
100
AcDbDimension
2
*D7
10
13
20
389
30
0
11
11.125
21
349
31
0
70
32
71
5
3
Standard
53
0
210
0
220
0
230
1
100
AcDbAlignedDimension
13
13
23
309
33
0
14
13
24
389
34
0
50
90
100
AcDbRotatedDimension
0
DIMENSION
5
201
100
AcDbEntity
8
tracés
6
ByLayer
62
256
370
-1
100
AcDbDimension
2
*D8
10
389
20
296
30
0
11
349
21
297.875
31
0
70
32
71
5
3
Standard
53
0
210
0
220
0
230
1
100
AcDbAlignedDimension
13
309
23
296
33
0
14
389
24
296
34
0
100
AcDbRotatedDimension
0
DIMENSION
5
202
100
AcDbEntity
8
tracés
6
ByLayer
62
256
370
-1
100
AcDbDimension
2
*D9
10
-80
20
296
30
0
11
-40
21
297.875
31
0
70
32
71
5
3
Standard
53
0
210
0
220
0
230
1
100
AcDbAlignedDimension
13
0
23
296
33
0
14
-80
24
296
34
0
100
AcDbRotatedDimension
0
DIMENSION
5
203
100
AcDbEntity
8
tracés
6
ByLayer
62
256
370
-1
100
AcDbDimension
2
*D10
10
13
20
-77
30
0
11
11.125
21
-38.5
31
0
70
32
71
5
72
0
3
Standard
53
0
210
0
220
0
230
1
100
AcDbAlignedDimension
13
13
23
0
33
0
14
13
24
-77
34
0
50
90
100
AcDbRotatedDimension
0
LINE
5
204
100
AcDbEntity
8
fixation
6
ByLayer
62
256
370
-1
100
AcDbLine
10
816
20
-490
11
836
21
-490
0
LINE
5
205
100
AcDbEntity
8
fixation
6
ByLayer
62
256
370
-1
100
AcDbLine
10
836
20
-490
11
836
21
-493
0
LINE
5
206
100
AcDbEntity
8
fixation
6
ByLayer
62
256
370
-1
100
AcDbLine
10
836
20
-493
11
856
21
-493
0
LINE
5
207
100
AcDbEntity
8
fixation
6
ByLayer
62
256
370
-1
100
AcDbLine
10
856
20
-493
11
856
21
-490
0
LINE
5
208
100
AcDbEntity
8
fixation
6
ByLayer
62
256
370
-1
100
AcDbLine
10
856
20
-490
11
876
21
-490
0
LINE
5
209
100
AcDbEntity
8
fixation
6
ByLayer
62
256
370
-1
100
AcDbLine
10
876
20
-490
11
876
21
-493
0
LINE
5
20A
100
AcDbEntity
8
fixation
6
ByLayer
62
256
370
-1
100
AcDbLine
10
816
20
-187
11
836
21
-187
0
LINE
5
20B
100
AcDbEntity
8
fixation
6
ByLayer
62
256
370
-1
100
AcDbLine
10
836
20
-187
11
836
21
-184
0
LINE
5
20C
100
AcDbEntity
8
fixation
6
ByLayer
62
256
370
-1
100
AcDbLine
10
836
20
-184
11
856
21
-184
0
LINE
5
20D
100
AcDbEntity
8
fixation
6
ByLayer
62
256
370
-1
100
AcDbLine
10
856
20
-184
11
856
21
-187
0
LINE
5
20E
100
AcDbEntity
8
fixation
6
ByLayer
62
256
370
-1
100
AcDbLine
10
856
20
-187
11
876
21
-187
0
LINE
5
20F
100
AcDbEntity
8
fixation
6
ByLayer
62
256
370
-1
100
AcDbLine
10
876
20
-187
11
876
21
-184
0
LINE
5
210
100
AcDbEntity
8
fixation
6
ByLayer
62
256
370
-1
100
AcDbLine
10
816
20
-490
11
816
21
-480
0
LINE
5
211
100
AcDbEntity
8
fixation
6
ByLayer
62
256
370
-1
100
AcDbLine
10
816
20
-480
11
813
21
-480
0
LINE
5
212
100
AcDbEntity
8
fixation
6
ByLayer
62
256
370
-1
100
AcDbLine
10
813
20
-480
11
813
21
-460
0
LINE
5
213
100
AcDbEntity
8
fixation
6
ByLayer
62
256
370
-1
100
AcDbLine
10
813
20
-460
11
816
21
-460
0
LINE
5
214
100
AcDbEntity
8
fixation
6
ByLayer
62
256
370
-1
100
AcDbLine
10
816
20
-460
11
816
21
-419
0
LINE
5
215
100
AcDbEntity
8
fixation
6
ByLayer
62
256
370
-1
100
AcDbLine
10
816
20
-419
11
813
21
-419
0
LINE
5
216
100
AcDbEntity
8
fixation
6
ByLayer
62
256
370
-1
100
AcDbLine
10
813
20
-419
11
813
21
-399
0
LINE
5
217
100
AcDbEntity
8
fixation
6
ByLayer
62
256
370
-1
100
AcDbLine
10
813
20
-399
11
816
21
-399
0
LINE
5
218
100
AcDbEntity
8
fixation
6
ByLayer
62
256
370
-1
100
AcDbLine
10
816
20
-399
11
816
21
-379
0
LINE
5
219
100
AcDbEntity
8
fixation
6
ByLayer
62
256
370
-1
100
AcDbLine
10
816
20
-379
11
813
21
-379
0
LINE
5
21A
100
AcDbEntity
8
fixation
6
ByLayer
62
256
370
-1
100
AcDbLine
10
813
20
-379
11
813
21
-359
0
LINE
5
21B
100
AcDbEntity
8
fixation
6
ByLayer
62
256
370
-1
100
AcDbLine
10
813
20
-359
11
816
21
-359
0
LINE
5
21C
100
AcDbEntity
8
fixation
6
ByLayer
62
256
370
-1
100
AcDbLine
10
816
20
-359
11
816
21
-318
0
LINE
5
21D
100
AcDbEntity
8
fixation
6
ByLayer
62
256
370
-1
100
AcDbLine
10
816
20
-318
11
813
21
-318
0
LINE
5
21E
100
AcDbEntity
8
fixation
6
ByLayer
62
256
370
-1
100
AcDbLine
10
813
20
-318
11
813
21
-298
0
LINE
5
21F
100
AcDbEntity
8
fixation
6
ByLayer
62
256
370
-1
100
AcDbLine
10
813
20
-298
11
816
21
-298
0
LINE
5
220
100
AcDbEntity
8
fixation
6
ByLayer
62
256
370
-1
100
AcDbLine
10
816
20
-298
11
816
21
-278
0
LINE
5
221
100
AcDbEntity
8
fixation
6
ByLayer
62
256
370
-1
100
AcDbLine
10
816
20
-278
11
813
21
-278
0
LINE
5
222
100
AcDbEntity
8
fixation
6
ByLayer
62
256
370
-1
100
AcDbLine
10
813
20
-278
11
813
21
-258
0
LINE
5
223
100
AcDbEntity
8
fixation
6
ByLayer
62
256
370
-1
100
AcDbLine
10
813
20
-258
11
816
21
-258
0
LINE
5
224
100
AcDbEntity
8
fixation
6
ByLayer
62
256
370
-1
100
AcDbLine
10
816
20
-258
11
816
21
-217
0
LINE
5
225
100
AcDbEntity
8
fixation
6
ByLayer
62
256
370
-1
100
AcDbLine
10
816
20
-217
11
813
21
-217
0
LINE
5
226
100
AcDbEntity
8
fixation
6
ByLayer
62
256
370
-1
100
AcDbLine
10
813
20
-217
11
813
21
-197
0
LINE
5
227
100
AcDbEntity
8
fixation
6
ByLayer
62
256
370
-1
100
AcDbLine
10
813
20
-197
11
816
21
-197
0
LINE
5
228
100
AcDbEntity
8
fixation
6
ByLayer
62
256
370
-1
100
AcDbLine
10
816
20
-197
11
816
21
-187
0
LINE
5
229
100
AcDbEntity
8
fixation
6
ByLayer
62
256
370
-1
100
AcDbLine
10
876
20
-493
11
893
21
-493
0
LINE
5
22A
100
AcDbEntity
8
fixation
6
ByLayer
62
256
370
-1
100
AcDbLine
10
876
20
-184
11
893
21
-184
0
LINE
5
22B
100
AcDbEntity
8
fixation
6
ByLayer
62
256
370
-1
100
AcDbLine
10
893
20
-214
11
846
21
-214
0
LINE
5
22C
100
AcDbEntity
8
fixation
6
ByLayer
62
256
370
-1
100
AcDbLine
10
846
20
-214
11
846
21
-217
0
LINE
5
22D
100
AcDbEntity
8
fixation
6
ByLayer
62
256
370
-1
100
AcDbLine
10
846
20
-217
11
893
21
-217
0
LINE
5
22E
100
AcDbEntity
8
fixation
6
ByLayer
62
256
370
-1
100
AcDbLine
10
893
20
-184
11
893
21
-187
0
LINE
5
22F
100
AcDbEntity
8
fixation
6
ByLayer
62
256
370
-1
100
AcDbLine
10
893
20
-187
11
893
21
-214
0
LINE
5
230
100
AcDbEntity
8
fixation
6
ByLayer
62
256
370
-1
100
AcDbLine
10
893
20
-244
11
846
21
-244
0
LINE
5
231
100
AcDbEntity
8
fixation
6
ByLayer
62
256
370
-1
100
AcDbLine
10
846
20
-244
11
846
21
-247
0
LINE
5
232
100
AcDbEntity
8
fixation
6
ByLayer
62
256
370
-1
100
AcDbLine
10
846
20
-247
11
893
21
-247
0
LINE
5
233
100
AcDbEntity
8
fixation
6
ByLayer
62
256
370
-1
100
AcDbLine
10
893
20
-217
11
893
21
-244
0
LINE
5
234
100
AcDbEntity
8
fixation
6
ByLayer
62
256
370
-1
100
AcDbLine
10
893
20
-274
11
846
21
-274
0
LINE
5
235
100
AcDbEntity
8
fixation
6
ByLayer
62
256
370
-1
100
AcDbLine
10
846
20
-274
11
846
21
-277
0
LINE
5
236
100
AcDbEntity
8
fixation
6
ByLayer
62
256
370
-1
100
AcDbLine
10
846
20
-277
11
893
21
-277
0
LINE
5
237
100
AcDbEntity
8
fixation
6
ByLayer
62
256
370
-1
100
AcDbLine
10
893
20
-247
11
893
21
-274
0
LINE
5
238
100
AcDbEntity
8
fixation
6
ByLayer
62
256
370
-1
100
AcDbLine
10
893
20
-304
11
846
21
-304
0
LINE
5
239
100
AcDbEntity
8
fixation
6
ByLayer
62
256
370
-1
100
AcDbLine
10
846
20
-304
11
846
21
-307
0
LINE
5
23A
100
AcDbEntity
8
fixation
6
ByLayer
62
256
370
-1
100
AcDbLine
10
846
20
-307
11
893
21
-307
0
LINE
5
23B
100
AcDbEntity
8
fixation
6
ByLayer
62
256
370
-1
100
AcDbLine
10
893
20
-277
11
893
21
-304
0
LINE
5
23C
100
AcDbEntity
8
fixation
6
ByLayer
62
256
370
-1
100
AcDbLine
10
893
20
-334
11
846
21
-334
0
LINE
5
23D
100
AcDbEntity
8
fixation
6
ByLayer
62
256
370
-1
100
AcDbLine
10
846
20
-334
11
846
21
-337
0
LINE
5
23E
100
AcDbEntity
8
fixation
6
ByLayer
62
256
370
-1
100
AcDbLine
10
846
20
-337
11
893
21
-337
0
LINE
5
23F
100
AcDbEntity
8
fixation
6
ByLayer
62
256
370
-1
100
AcDbLine
10
893
20
-307
11
893
21
-334
0
LINE
5
240
100
AcDbEntity
8
fixation
6
ByLayer
62
256
370
-1
100
AcDbLine
10
893
20
-364
11
846
21
-364
0
LINE
5
241
100
AcDbEntity
8
fixation
6
ByLayer
62
256
370
-1
100
AcDbLine
10
846
20
-364
11
846
21
-367
0
LINE
5
242
100
AcDbEntity
8
fixation
6
ByLayer
62
256
370
-1
100
AcDbLine
10
846
20
-367
11
893
21
-367
0
LINE
5
243
100
AcDbEntity
8
fixation
6
ByLayer
62
256
370
-1
100
AcDbLine
10
893
20
-337
11
893
21
-364
0
LINE
5
244
100
AcDbEntity
8
fixation
6
ByLayer
62
256
370
-1
100
AcDbLine
10
893
20
-394
11
846
21
-394
0
LINE
5
245
100
AcDbEntity
8
fixation
6
ByLayer
62
256
370
-1
100
AcDbLine
10
846
20
-394
11
846
21
-397
0
LINE
5
246
100
AcDbEntity
8
fixation
6
ByLayer
62
256
370
-1
100
AcDbLine
10
846
20
-397
11
893
21
-397
0
LINE
5
247
100
AcDbEntity
8
fixation
6
ByLayer
62
256
370
-1
100
AcDbLine
10
893
20
-367
11
893
21
-394
0
LINE
5
248
100
AcDbEntity
8
fixation
6
ByLayer
62
256
370
-1
100
AcDbLine
10
893
20
-424
11
846
21
-424
0
LINE
5
249
100
AcDbEntity
8
fixation
6
ByLayer
62
256
370
-1
100
AcDbLine
10
846
20
-424
11
846
21
-427
0
LINE
5
24A
100
AcDbEntity
8
fixation
6
ByLayer
62
256
370
-1
100
AcDbLine
10
846
20
-427
11
893
21
-427
0
LINE
5
24B
100
AcDbEntity
8
fixation
6
ByLayer
62
256
370
-1
100
AcDbLine
10
893
20
-397
11
893
21
-424
0
LINE
5
24C
100
AcDbEntity
8
fixation
6
ByLayer
62
256
370
-1
100
AcDbLine
10
893
20
-454
11
846
21
-454
0
LINE
5
24D
100
AcDbEntity
8
fixation
6
ByLayer
62
256
370
-1
100
AcDbLine
10
846
20
-454
11
846
21
-457
0
LINE
5
24E
100
AcDbEntity
8
fixation
6
ByLayer
62
256
370
-1
100
AcDbLine
10
846
20
-457
11
893
21
-457
0
LINE
5
24F
100
AcDbEntity
8
fixation
6
ByLayer
62
256
370
-1
100
AcDbLine
10
893
20
-427
11
893
21
-454
0
LINE
5
250
100
AcDbEntity
8
fixation
6
ByLayer
62
256
370
-1
100
AcDbLine
10
893
20
-457
11
893
21
-493
0
LINE
5
251
100
AcDbEntity
8
fixation
6
ByLayer
62
256
370
-1
100
AcDbLine
10
897
20
-490
11
917
21
-490
0
LINE
5
252
100
AcDbEntity
8
fixation
6
ByLayer
62
256
370
-1
100
AcDbLine
10
917
20
-490
11
917
21
-493
0
LINE
5
253
100
AcDbEntity
8
fixation
6
ByLayer
62
256
370
-1
100
AcDbLine
10
917
20
-493
11
937
21
-493
0
LINE
5
254
100
AcDbEntity
8
fixation
6
ByLayer
62
256
370
-1
100
AcDbLine
10
937
20
-493
11
937
21
-490
0
LINE
5
255
100
AcDbEntity
8
fixation
6
ByLayer
62
256
370
-1
100
AcDbLine
10
937
20
-490
11
957
21
-490
0
LINE
5
256
100
AcDbEntity
8
fixation
6
ByLayer
62
256
370
-1
100
AcDbLine
10
957
20
-490
11
957
21
-493
0
LINE
5
257
100
AcDbEntity
8
fixation
6
ByLayer
62
256
370
-1
100
AcDbLine
10
897
20
-187
11
917
21
-187
0
LINE
5
258
100
AcDbEntity
8
fixation
6
ByLayer
62
256
370
-1
100
AcDbLine
10
917
20
-187
11
917
21
-184
0
LINE
5
259
100
AcDbEntity
8
fixation
6
ByLayer
62
256
370
-1
100
AcDbLine
10
917
20
-184
11
937
21
-184
0
LINE
5
25A
100
AcDbEntity
8
fixation
6
ByLayer
62
256
370
-1
100
AcDbLine
10
937
20
-184
11
937
21
-187
0
LINE
5
25B
100
AcDbEntity
8
fixation
6
ByLayer
62
256
370
-1
100
AcDbLine
10
937
20
-187
11
957
21
-187
0
LINE
5
25C
100
AcDbEntity
8
fixation
6
ByLayer
62
256
370
-1
100
AcDbLine
10
957
20
-187
11
957
21
-184
0
LINE
5
25D
100
AcDbEntity
8
fixation
6
ByLayer
62
256
370
-1
100
AcDbLine
10
897
20
-490
11
897
21
-480
0
LINE
5
25E
100
AcDbEntity
8
fixation
6
ByLayer
62
256
370
-1
100
AcDbLine
10
897
20
-480
11
894
21
-480
0
LINE
5
25F
100
AcDbEntity
8
fixation
6
ByLayer
62
256
370
-1
100
AcDbLine
10
894
20
-480
11
894
21
-460
0
LINE
5
260
100
AcDbEntity
8
fixation
6
ByLayer
62
256
370
-1
100
AcDbLine
10
894
20
-460
11
897
21
-460
0
LINE
5
261
100
AcDbEntity
8
fixation
6
ByLayer
62
256
370
-1
100
AcDbLine
10
897
20
-460
11
897
21
-419
0
LINE
5
262
100
AcDbEntity
8
fixation
6
ByLayer
62
256
370
-1
100
AcDbLine
10
897
20
-419
11
894
21
-419
0
LINE
5
263
100
AcDbEntity
8
fixation
6
ByLayer
62
256
370
-1
100
AcDbLine
10
894
20
-419
11
894
21
-399
0
LINE
5
264
100
AcDbEntity
8
fixation
6
ByLayer
62
256
370
-1
100
AcDbLine
10
894
20
-399
11
897
21
-399
0
LINE
5
265
100
AcDbEntity
8
fixation
6
ByLayer
62
256
370
-1
100
AcDbLine
10
897
20
-399
11
897
21
-379
0
LINE
5
266
100
AcDbEntity
8
fixation
6
ByLayer
62
256
370
-1
100
AcDbLine
10
897
20
-379
11
894
21
-379
0
LINE
5
267
100
AcDbEntity
8
fixation
6
ByLayer
62
256
370
-1
100
AcDbLine
10
894
20
-379
11
894
21
-359
0
LINE
5
268
100
AcDbEntity
8
fixation
6
ByLayer
62
256
370
-1
100
AcDbLine
10
894
20
-359
11
897
21
-359
0
LINE
5
269
100
AcDbEntity
8
fixation
6
ByLayer
62
256
370
-1
100
AcDbLine
10
897
20
-359
11
897
21
-318
0
LINE
5
26A
100
AcDbEntity
8
fixation
6
ByLayer
62
256
370
-1
100
AcDbLine
10
897
20
-318
11
894
21
-318
0
LINE
5
26B
100
AcDbEntity
8
fixation
6
ByLayer
62
256
370
-1
100
AcDbLine
10
894
20
-318
11
894
21
-298
0
LINE
5
26C
100
AcDbEntity
8
fixation
6
ByLayer
62
256
370
-1
100
AcDbLine
10
894
20
-298
11
897
21
-298
0
LINE
5
26D
100
AcDbEntity
8
fixation
6
ByLayer
62
256
370
-1
100
AcDbLine
10
897
20
-298
11
897
21
-278
0
LINE
5
26E
100
AcDbEntity
8
fixation
6
ByLayer
62
256
370
-1
100
AcDbLine
10
897
20
-278
11
894
21
-278
0
LINE
5
26F
100
AcDbEntity
8
fixation
6
ByLayer
62
256
370
-1
100
AcDbLine
10
894
20
-278
11
894
21
-258
0
LINE
5
270
100
AcDbEntity
8
fixation
6
ByLayer
62
256
370
-1
100
AcDbLine
10
894
20
-258
11
897
21
-258
0
LINE
5
271
100
AcDbEntity
8
fixation
6
ByLayer
62
256
370
-1
100
AcDbLine
10
897
20
-258
11
897
21
-217
0
LINE
5
272
100
AcDbEntity
8
fixation
6
ByLayer
62
256
370
-1
100
AcDbLine
10
897
20
-217
11
894
21
-217
0
LINE
5
273
100
AcDbEntity
8
fixation
6
ByLayer
62
256
370
-1
100
AcDbLine
10
894
20
-217
11
894
21
-197
0
LINE
5
274
100
AcDbEntity
8
fixation
6
ByLayer
62
256
370
-1
100
AcDbLine
10
894
20
-197
11
897
21
-197
0
LINE
5
275
100
AcDbEntity
8
fixation
6
ByLayer
62
256
370
-1
100
AcDbLine
10
897
20
-197
11
897
21
-187
0
LINE
5
276
100
AcDbEntity
8
fixation
6
ByLayer
62
256
370
-1
100
AcDbLine
10
957
20
-493
11
974
21
-493
0
LINE
5
277
100
AcDbEntity
8
fixation
6
ByLayer
62
256
370
-1
100
AcDbLine
10
957
20
-184
11
974
21
-184
0
LINE
5
278
100
AcDbEntity
8
fixation
6
ByLayer
62
256
370
-1
100
AcDbLine
10
974
20
-214
11
927
21
-214
0
LINE
5
279
100
AcDbEntity
8
fixation
6
ByLayer
62
256
370
-1
100
AcDbLine
10
927
20
-214
11
927
21
-217
0
LINE
5
27A
100
AcDbEntity
8
fixation
6
ByLayer
62
256
370
-1
100
AcDbLine
10
927
20
-217
11
974
21
-217
0
LINE
5
27B
100
AcDbEntity
8
fixation
6
ByLayer
62
256
370
-1
100
AcDbLine
10
974
20
-184
11
974
21
-187
0
LINE
5
27C
100
AcDbEntity
8
fixation
6
ByLayer
62
256
370
-1
100
AcDbLine
10
974
20
-187
11
974
21
-214
0
LINE
5
27D
100
AcDbEntity
8
fixation
6
ByLayer
62
256
370
-1
100
AcDbLine
10
974
20
-244
11
927
21
-244
0
LINE
5
27E
100
AcDbEntity
8
fixation
6
ByLayer
62
256
370
-1
100
AcDbLine
10
927
20
-244
11
927
21
-247
0
LINE
5
27F
100
AcDbEntity
8
fixation
6
ByLayer
62
256
370
-1
100
AcDbLine
10
927
20
-247
11
974
21
-247
0
LINE
5
280
100
AcDbEntity
8
fixation
6
ByLayer
62
256
370
-1
100
AcDbLine
10
974
20
-217
11
974
21
-244
0
LINE
5
281
100
AcDbEntity
8
fixation
6
ByLayer
62
256
370
-1
100
AcDbLine
10
974
20
-274
11
927
21
-274
0
LINE
5
282
100
AcDbEntity
8
fixation
6
ByLayer
62
256
370
-1
100
AcDbLine
10
927
20
-274
11
927
21
-277
0
LINE
5
283
100
AcDbEntity
8
fixation
6
ByLayer
62
256
370
-1
100
AcDbLine
10
927
20
-277
11
974
21
-277
0
LINE
5
284
100
AcDbEntity
8
fixation
6
ByLayer
62
256
370
-1
100
AcDbLine
10
974
20
-247
11
974
21
-274
0
LINE
5
285
100
AcDbEntity
8
fixation
6
ByLayer
62
256
370
-1
100
AcDbLine
10
974
20
-304
11
927
21
-304
0
LINE
5
286
100
AcDbEntity
8
fixation
6
ByLayer
62
256
370
-1
100
AcDbLine
10
927
20
-304
11
927
21
-307
0
LINE
5
287
100
AcDbEntity
8
fixation
6
ByLayer
62
256
370
-1
100
AcDbLine
10
927
20
-307
11
974
21
-307
0
LINE
5
288
100
AcDbEntity
8
fixation
6
ByLayer
62
256
370
-1
100
AcDbLine
10
974
20
-277
11
974
21
-304
0
LINE
5
289
100
AcDbEntity
8
fixation
6
ByLayer
62
256
370
-1
100
AcDbLine
10
974
20
-334
11
927
21
-334
0
LINE
5
28A
100
AcDbEntity
8
fixation
6
ByLayer
62
256
370
-1
100
AcDbLine
10
927
20
-334
11
927
21
-337
0
LINE
5
28B
100
AcDbEntity
8
fixation
6
ByLayer
62
256
370
-1
100
AcDbLine
10
927
20
-337
11
974
21
-337
0
LINE
5
28C
100
AcDbEntity
8
fixation
6
ByLayer
62
256
370
-1
100
AcDbLine
10
974
20
-307
11
974
21
-334
0
LINE
5
28D
100
AcDbEntity
8
fixation
6
ByLayer
62
256
370
-1
100
AcDbLine
10
974
20
-364
11
927
21
-364
0
LINE
5
28E
100
AcDbEntity
8
fixation
6
ByLayer
62
256
370
-1
100
AcDbLine
10
927
20
-364
11
927
21
-367
0
LINE
5
28F
100
AcDbEntity
8
fixation
6
ByLayer
62
256
370
-1
100
AcDbLine
10
927
20
-367
11
974
21
-367
0
LINE
5
290
100
AcDbEntity
8
fixation
6
ByLayer
62
256
370
-1
100
AcDbLine
10
974
20
-337
11
974
21
-364
0
LINE
5
291
100
AcDbEntity
8
fixation
6
ByLayer
62
256
370
-1
100
AcDbLine
10
974
20
-394
11
927
21
-394
0
LINE
5
292
100
AcDbEntity
8
fixation
6
ByLayer
62
256
370
-1
100
AcDbLine
10
927
20
-394
11
927
21
-397
0
LINE
5
293
100
AcDbEntity
8
fixation
6
ByLayer
62
256
370
-1
100
AcDbLine
10
927
20
-397
11
974
21
-397
0
LINE
5
294
100
AcDbEntity
8
fixation
6
ByLayer
62
256
370
-1
100
AcDbLine
10
974
20
-367
11
974
21
-394
0
LINE
5
295
100
AcDbEntity
8
fixation
6
ByLayer
62
256
370
-1
100
AcDbLine
10
974
20
-424
11
927
21
-424
0
LINE
5
296
100
AcDbEntity
8
fixation
6
ByLayer
62
256
370
-1
100
AcDbLine
10
927
20
-424
11
927
21
-427
0
LINE
5
297
100
AcDbEntity
8
fixation
6
ByLayer
62
256
370
-1
100
AcDbLine
10
927
20
-427
11
974
21
-427
0
LINE
5
298
100
AcDbEntity
8
fixation
6
ByLayer
62
256
370
-1
100
AcDbLine
10
974
20
-397
11
974
21
-424
0
LINE
5
299
100
AcDbEntity
8
fixation
6
ByLayer
62
256
370
-1
100
AcDbLine
10
974
20
-454
11
927
21
-454
0
LINE
5
29A
100
AcDbEntity
8
fixation
6
ByLayer
62
256
370
-1
100
AcDbLine
10
927
20
-454
11
927
21
-457
0
LINE
5
29B
100
AcDbEntity
8
fixation
6
ByLayer
62
256
370
-1
100
AcDbLine
10
927
20
-457
11
974
21
-457
0
LINE
5
29C
100
AcDbEntity
8
fixation
6
ByLayer
62
256
370
-1
100
AcDbLine
10
974
20
-427
11
974
21
-454
0
LINE
5
29D
100
AcDbEntity
8
fixation
6
ByLayer
62
256
370
-1
100
AcDbLine
10
974
20
-457
11
974
21
-493
0
LINE
5
29E
100
AcDbEntity
8
fixation
6
ByLayer
62
256
370
-1
100
AcDbLine
10
978
20
-490
11
998
21
-490
0
LINE
5
29F
100
AcDbEntity
8
fixation
6
ByLayer
62
256
370
-1
100
AcDbLine
10
998
20
-490
11
998
21
-493
0
LINE
5
2A0
100
AcDbEntity
8
fixation
6
ByLayer
62
256
370
-1
100
AcDbLine
10
998
20
-493
11
1018
21
-493
0
LINE
5
2A1
100
AcDbEntity
8
fixation
6
ByLayer
62
256
370
-1
100
AcDbLine
10
1018
20
-493
11
1018
21
-490
0
LINE
5
2A2
100
AcDbEntity
8
fixation
6
ByLayer
62
256
370
-1
100
AcDbLine
10
1018
20
-490
11
1038
21
-490
0
LINE
5
2A3
100
AcDbEntity
8
fixation
6
ByLayer
62
256
370
-1
100
AcDbLine
10
1038
20
-490
11
1038
21
-493
0
LINE
5
2A4
100
AcDbEntity
8
fixation
6
ByLayer
62
256
370
-1
100
AcDbLine
10
978
20
-187
11
998
21
-187
0
LINE
5
2A5
100
AcDbEntity
8
fixation
6
ByLayer
62
256
370
-1
100
AcDbLine
10
998
20
-187
11
998
21
-184
0
LINE
5
2A6
100
AcDbEntity
8
fixation
6
ByLayer
62
256
370
-1
100
AcDbLine
10
998
20
-184
11
1018
21
-184
0
LINE
5
2A7
100
AcDbEntity
8
fixation
6
ByLayer
62
256
370
-1
100
AcDbLine
10
1018
20
-184
11
1018
21
-187
0
LINE
5
2A8
100
AcDbEntity
8
fixation
6
ByLayer
62
256
370
-1
100
AcDbLine
10
1018
20
-187
11
1038
21
-187
0
LINE
5
2A9
100
AcDbEntity
8
fixation
6
ByLayer
62
256
370
-1
100
AcDbLine
10
1038
20
-187
11
1038
21
-184
0
LINE
5
2AA
100
AcDbEntity
8
fixation
6
ByLayer
62
256
370
-1
100
AcDbLine
10
978
20
-490
11
978
21
-480
0
LINE
5
2AB
100
AcDbEntity
8
fixation
6
ByLayer
62
256
370
-1
100
AcDbLine
10
978
20
-480
11
975
21
-480
0
LINE
5
2AC
100
AcDbEntity
8
fixation
6
ByLayer
62
256
370
-1
100
AcDbLine
10
975
20
-480
11
975
21
-460
0
LINE
5
2AD
100
AcDbEntity
8
fixation
6
ByLayer
62
256
370
-1
100
AcDbLine
10
975
20
-460
11
978
21
-460
0
LINE
5
2AE
100
AcDbEntity
8
fixation
6
ByLayer
62
256
370
-1
100
AcDbLine
10
978
20
-460
11
978
21
-419
0
LINE
5
2AF
100
AcDbEntity
8
fixation
6
ByLayer
62
256
370
-1
100
AcDbLine
10
978
20
-419
11
975
21
-419
0
LINE
5
2B0
100
AcDbEntity
8
fixation
6
ByLayer
62
256
370
-1
100
AcDbLine
10
975
20
-419
11
975
21
-399
0
LINE
5
2B1
100
AcDbEntity
8
fixation
6
ByLayer
62
256
370
-1
100
AcDbLine
10
975
20
-399
11
978
21
-399
0
LINE
5
2B2
100
AcDbEntity
8
fixation
6
ByLayer
62
256
370
-1
100
AcDbLine
10
978
20
-399
11
978
21
-379
0
LINE
5
2B3
100
AcDbEntity
8
fixation
6
ByLayer
62
256
370
-1
100
AcDbLine
10
978
20
-379
11
975
21
-379
0
LINE
5
2B4
100
AcDbEntity
8
fixation
6
ByLayer
62
256
370
-1
100
AcDbLine
10
975
20
-379
11
975
21
-359
0
LINE
5
2B5
100
AcDbEntity
8
fixation
6
ByLayer
62
256
370
-1
100
AcDbLine
10
975
20
-359
11
978
21
-359
0
LINE
5
2B6
100
AcDbEntity
8
fixation
6
ByLayer
62
256
370
-1
100
AcDbLine
10
978
20
-359
11
978
21
-318
0
LINE
5
2B7
100
AcDbEntity
8
fixation
6
ByLayer
62
256
370
-1
100
AcDbLine
10
978
20
-318
11
975
21
-318
0
LINE
5
2B8
100
AcDbEntity
8
fixation
6
ByLayer
62
256
370
-1
100
AcDbLine
10
975
20
-318
11
975
21
-298
0
LINE
5
2B9
100
AcDbEntity
8
fixation
6
ByLayer
62
256
370
-1
100
AcDbLine
10
975
20
-298
11
978
21
-298
0
LINE
5
2BA
100
AcDbEntity
8
fixation
6
ByLayer
62
256
370
-1
100
AcDbLine
10
978
20
-298
11
978
21
-278
0
LINE
5
2BB
100
AcDbEntity
8
fixation
6
ByLayer
62
256
370
-1
100
AcDbLine
10
978
20
-278
11
975
21
-278
0
LINE
5
2BC
100
AcDbEntity
8
fixation
6
ByLayer
62
256
370
-1
100
AcDbLine
10
975
20
-278
11
975
21
-258
0
LINE
5
2BD
100
AcDbEntity
8
fixation
6
ByLayer
62
256
370
-1
100
AcDbLine
10
975
20
-258
11
978
21
-258
0
LINE
5
2BE
100
AcDbEntity
8
fixation
6
ByLayer
62
256
370
-1
100
AcDbLine
10
978
20
-258
11
978
21
-217
0
LINE
5
2BF
100
AcDbEntity
8
fixation
6
ByLayer
62
256
370
-1
100
AcDbLine
10
978
20
-217
11
975
21
-217
0
LINE
5
2C0
100
AcDbEntity
8
fixation
6
ByLayer
62
256
370
-1
100
AcDbLine
10
975
20
-217
11
975
21
-197
0
LINE
5
2C1
100
AcDbEntity
8
fixation
6
ByLayer
62
256
370
-1
100
AcDbLine
10
975
20
-197
11
978
21
-197
0
LINE
5
2C2
100
AcDbEntity
8
fixation
6
ByLayer
62
256
370
-1
100
AcDbLine
10
978
20
-197
11
978
21
-187
0
LINE
5
2C3
100
AcDbEntity
8
fixation
6
ByLayer
62
256
370
-1
100
AcDbLine
10
1038
20
-493
11
1055
21
-493
0
LINE
5
2C4
100
AcDbEntity
8
fixation
6
ByLayer
62
256
370
-1
100
AcDbLine
10
1038
20
-184
11
1055
21
-184
0
LINE
5
2C5
100
AcDbEntity
8
fixation
6
ByLayer
62
256
370
-1
100
AcDbLine
10
1055
20
-214
11
1008
21
-214
0
LINE
5
2C6
100
AcDbEntity
8
fixation
6
ByLayer
62
256
370
-1
100
AcDbLine
10
1008
20
-214
11
1008
21
-217
0
LINE
5
2C7
100
AcDbEntity
8
fixation
6
ByLayer
62
256
370
-1
100
AcDbLine
10
1008
20
-217
11
1055
21
-217
0
LINE
5
2C8
100
AcDbEntity
8
fixation
6
ByLayer
62
256
370
-1
100
AcDbLine
10
1055
20
-184
11
1055
21
-187
0
LINE
5
2C9
100
AcDbEntity
8
fixation
6
ByLayer
62
256
370
-1
100
AcDbLine
10
1055
20
-187
11
1055
21
-214
0
LINE
5
2CA
100
AcDbEntity
8
fixation
6
ByLayer
62
256
370
-1
100
AcDbLine
10
1055
20
-244
11
1008
21
-244
0
LINE
5
2CB
100
AcDbEntity
8
fixation
6
ByLayer
62
256
370
-1
100
AcDbLine
10
1008
20
-244
11
1008
21
-247
0
LINE
5
2CC
100
AcDbEntity
8
fixation
6
ByLayer
62
256
370
-1
100
AcDbLine
10
1008
20
-247
11
1055
21
-247
0
LINE
5
2CD
100
AcDbEntity
8
fixation
6
ByLayer
62
256
370
-1
100
AcDbLine
10
1055
20
-217
11
1055
21
-244
0
LINE
5
2CE
100
AcDbEntity
8
fixation
6
ByLayer
62
256
370
-1
100
AcDbLine
10
1055
20
-274
11
1008
21
-274
0
LINE
5
2CF
100
AcDbEntity
8
fixation
6
ByLayer
62
256
370
-1
100
AcDbLine
10
1008
20
-274
11
1008
21
-277
0
LINE
5
2D0
100
AcDbEntity
8
fixation
6
ByLayer
62
256
370
-1
100
AcDbLine
10
1008
20
-277
11
1055
21
-277
0
LINE
5
2D1
100
AcDbEntity
8
fixation
6
ByLayer
62
256
370
-1
100
AcDbLine
10
1055
20
-247
11
1055
21
-274
0
LINE
5
2D2
100
AcDbEntity
8
fixation
6
ByLayer
62
256
370
-1
100
AcDbLine
10
1055
20
-304
11
1008
21
-304
0
LINE
5
2D3
100
AcDbEntity
8
fixation
6
ByLayer
62
256
370
-1
100
AcDbLine
10
1008
20
-304
11
1008
21
-307
0
LINE
5
2D4
100
AcDbEntity
8
fixation
6
ByLayer
62
256
370
-1
100
AcDbLine
10
1008
20
-307
11
1055
21
-307
0
LINE
5
2D5
100
AcDbEntity
8
fixation
6
ByLayer
62
256
370
-1
100
AcDbLine
10
1055
20
-277
11
1055
21
-304
0
LINE
5
2D6
100
AcDbEntity
8
fixation
6
ByLayer
62
256
370
-1
100
AcDbLine
10
1055
20
-334
11
1008
21
-334
0
LINE
5
2D7
100
AcDbEntity
8
fixation
6
ByLayer
62
256
370
-1
100
AcDbLine
10
1008
20
-334
11
1008
21
-337
0
LINE
5
2D8
100
AcDbEntity
8
fixation
6
ByLayer
62
256
370
-1
100
AcDbLine
10
1008
20
-337
11
1055
21
-337
0
LINE
5
2D9
100
AcDbEntity
8
fixation
6
ByLayer
62
256
370
-1
100
AcDbLine
10
1055
20
-307
11
1055
21
-334
0
LINE
5
2DA
100
AcDbEntity
8
fixation
6
ByLayer
62
256
370
-1
100
AcDbLine
10
1055
20
-364
11
1008
21
-364
0
LINE
5
2DB
100
AcDbEntity
8
fixation
6
ByLayer
62
256
370
-1
100
AcDbLine
10
1008
20
-364
11
1008
21
-367
0
LINE
5
2DC
100
AcDbEntity
8
fixation
6
ByLayer
62
256
370
-1
100
AcDbLine
10
1008
20
-367
11
1055
21
-367
0
LINE
5
2DD
100
AcDbEntity
8
fixation
6
ByLayer
62
256
370
-1
100
AcDbLine
10
1055
20
-337
11
1055
21
-364
0
LINE
5
2DE
100
AcDbEntity
8
fixation
6
ByLayer
62
256
370
-1
100
AcDbLine
10
1055
20
-394
11
1008
21
-394
0
LINE
5
2DF
100
AcDbEntity
8
fixation
6
ByLayer
62
256
370
-1
100
AcDbLine
10
1008
20
-394
11
1008
21
-397
0
LINE
5
2E0
100
AcDbEntity
8
fixation
6
ByLayer
62
256
370
-1
100
AcDbLine
10
1008
20
-397
11
1055
21
-397
0
LINE
5
2E1
100
AcDbEntity
8
fixation
6
ByLayer
62
256
370
-1
100
AcDbLine
10
1055
20
-367
11
1055
21
-394
0
LINE
5
2E2
100
AcDbEntity
8
fixation
6
ByLayer
62
256
370
-1
100
AcDbLine
10
1055
20
-424
11
1008
21
-424
0
LINE
5
2E3
100
AcDbEntity
8
fixation
6
ByLayer
62
256
370
-1
100
AcDbLine
10
1008
20
-424
11
1008
21
-427
0
LINE
5
2E4
100
AcDbEntity
8
fixation
6
ByLayer
62
256
370
-1
100
AcDbLine
10
1008
20
-427
11
1055
21
-427
0
LINE
5
2E5
100
AcDbEntity
8
fixation
6
ByLayer
62
256
370
-1
100
AcDbLine
10
1055
20
-397
11
1055
21
-424
0
LINE
5
2E6
100
AcDbEntity
8
fixation
6
ByLayer
62
256
370
-1
100
AcDbLine
10
1055
20
-454
11
1008
21
-454
0
LINE
5
2E7
100
AcDbEntity
8
fixation
6
ByLayer
62
256
370
-1
100
AcDbLine
10
1008
20
-454
11
1008
21
-457
0
LINE
5
2E8
100
AcDbEntity
8
fixation
6
ByLayer
62
256
370
-1
100
AcDbLine
10
1008
20
-457
11
1055
21
-457
0
LINE
5
2E9
100
AcDbEntity
8
fixation
6
ByLayer
62
256
370
-1
100
AcDbLine
10
1055
20
-427
11
1055
21
-454
0
LINE
5
2EA
100
AcDbEntity
8
fixation
6
ByLayer
62
256
370
-1
100
AcDbLine
10
1055
20
-457
11
1055
21
-493
0
LINE
5
2EB
100
AcDbEntity
8
fixation
6
ByLayer
62
256
370
-1
100
AcDbLine
10
1059
20
-490
11
1079
21
-490
0
LINE
5
2EC
100
AcDbEntity
8
fixation
6
ByLayer
62
256
370
-1
100
AcDbLine
10
1079
20
-490
11
1079
21
-493
0
LINE
5
2ED
100
AcDbEntity
8
fixation
6
ByLayer
62
256
370
-1
100
AcDbLine
10
1079
20
-493
11
1099
21
-493
0
LINE
5
2EE
100
AcDbEntity
8
fixation
6
ByLayer
62
256
370
-1
100
AcDbLine
10
1099
20
-493
11
1099
21
-490
0
LINE
5
2EF
100
AcDbEntity
8
fixation
6
ByLayer
62
256
370
-1
100
AcDbLine
10
1099
20
-490
11
1119
21
-490
0
LINE
5
2F0
100
AcDbEntity
8
fixation
6
ByLayer
62
256
370
-1
100
AcDbLine
10
1119
20
-490
11
1119
21
-493
0
LINE
5
2F1
100
AcDbEntity
8
fixation
6
ByLayer
62
256
370
-1
100
AcDbLine
10
1059
20
-187
11
1079
21
-187
0
LINE
5
2F2
100
AcDbEntity
8
fixation
6
ByLayer
62
256
370
-1
100
AcDbLine
10
1079
20
-187
11
1079
21
-184
0
LINE
5
2F3
100
AcDbEntity
8
fixation
6
ByLayer
62
256
370
-1
100
AcDbLine
10
1079
20
-184
11
1099
21
-184
0
LINE
5
2F4
100
AcDbEntity
8
fixation
6
ByLayer
62
256
370
-1
100
AcDbLine
10
1099
20
-184
11
1099
21
-187
0
LINE
5
2F5
100
AcDbEntity
8
fixation
6
ByLayer
62
256
370
-1
100
AcDbLine
10
1099
20
-187
11
1119
21
-187
0
LINE
5
2F6
100
AcDbEntity
8
fixation
6
ByLayer
62
256
370
-1
100
AcDbLine
10
1119
20
-187
11
1119
21
-184
0
LINE
5
2F7
100
AcDbEntity
8
fixation
6
ByLayer
62
256
370
-1
100
AcDbLine
10
1059
20
-490
11
1059
21
-480
0
LINE
5
2F8
100
AcDbEntity
8
fixation
6
ByLayer
62
256
370
-1
100
AcDbLine
10
1059
20
-480
11
1056
21
-480
0
LINE
5
2F9
100
AcDbEntity
8
fixation
6
ByLayer
62
256
370
-1
100
AcDbLine
10
1056
20
-480
11
1056
21
-460
0
LINE
5
2FA
100
AcDbEntity
8
fixation
6
ByLayer
62
256
370
-1
100
AcDbLine
10
1056
20
-460
11
1059
21
-460
0
LINE
5
2FB
100
AcDbEntity
8
fixation
6
ByLayer
62
256
370
-1
100
AcDbLine
10
1059
20
-460
11
1059
21
-419
0
LINE
5
2FC
100
AcDbEntity
8
fixation
6
ByLayer
62
256
370
-1
100
AcDbLine
10
1059
20
-419
11
1056
21
-419
0
LINE
5
2FD
100
AcDbEntity
8
fixation
6
ByLayer
62
256
370
-1
100
AcDbLine
10
1056
20
-419
11
1056
21
-399
0
LINE
5
2FE
100
AcDbEntity
8
fixation
6
ByLayer
62
256
370
-1
100
AcDbLine
10
1056
20
-399
11
1059
21
-399
0
LINE
5
2FF
100
AcDbEntity
8
fixation
6
ByLayer
62
256
370
-1
100
AcDbLine
10
1059
20
-399
11
1059
21
-379
0
LINE
5
300
100
AcDbEntity
8
fixation
6
ByLayer
62
256
370
-1
100
AcDbLine
10
1059
20
-379
11
1056
21
-379
0
LINE
5
301
100
AcDbEntity
8
fixation
6
ByLayer
62
256
370
-1
100
AcDbLine
10
1056
20
-379
11
1056
21
-359
0
LINE
5
302
100
AcDbEntity
8
fixation
6
ByLayer
62
256
370
-1
100
AcDbLine
10
1056
20
-359
11
1059
21
-359
0
LINE
5
303
100
AcDbEntity
8
fixation
6
ByLayer
62
256
370
-1
100
AcDbLine
10
1059
20
-359
11
1059
21
-318
0
LINE
5
304
100
AcDbEntity
8
fixation
6
ByLayer
62
256
370
-1
100
AcDbLine
10
1059
20
-318
11
1056
21
-318
0
LINE
5
305
100
AcDbEntity
8
fixation
6
ByLayer
62
256
370
-1
100
AcDbLine
10
1056
20
-318
11
1056
21
-298
0
LINE
5
306
100
AcDbEntity
8
fixation
6
ByLayer
62
256
370
-1
100
AcDbLine
10
1056
20
-298
11
1059
21
-298
0
LINE
5
307
100
AcDbEntity
8
fixation
6
ByLayer
62
256
370
-1
100
AcDbLine
10
1059
20
-298
11
1059
21
-278
0
LINE
5
308
100
AcDbEntity
8
fixation
6
ByLayer
62
256
370
-1
100
AcDbLine
10
1059
20
-278
11
1056
21
-278
0
LINE
5
309
100
AcDbEntity
8
fixation
6
ByLayer
62
256
370
-1
100
AcDbLine
10
1056
20
-278
11
1056
21
-258
0
LINE
5
30A
100
AcDbEntity
8
fixation
6
ByLayer
62
256
370
-1
100
AcDbLine
10
1056
20
-258
11
1059
21
-258
0
LINE
5
30B
100
AcDbEntity
8
fixation
6
ByLayer
62
256
370
-1
100
AcDbLine
10
1059
20
-258
11
1059
21
-217
0
LINE
5
30C
100
AcDbEntity
8
fixation
6
ByLayer
62
256
370
-1
100
AcDbLine
10
1059
20
-217
11
1056
21
-217
0
LINE
5
30D
100
AcDbEntity
8
fixation
6
ByLayer
62
256
370
-1
100
AcDbLine
10
1056
20
-217
11
1056
21
-197
0
LINE
5
30E
100
AcDbEntity
8
fixation
6
ByLayer
62
256
370
-1
100
AcDbLine
10
1056
20
-197
11
1059
21
-197
0
LINE
5
30F
100
AcDbEntity
8
fixation
6
ByLayer
62
256
370
-1
100
AcDbLine
10
1059
20
-197
11
1059
21
-187
0
LINE
5
310
100
AcDbEntity
8
fixation
6
ByLayer
62
256
370
-1
100
AcDbLine
10
1119
20
-493
11
1136
21
-493
0
LINE
5
311
100
AcDbEntity
8
fixation
6
ByLayer
62
256
370
-1
100
AcDbLine
10
1119
20
-184
11
1136
21
-184
0
LINE
5
312
100
AcDbEntity
8
fixation
6
ByLayer
62
256
370
-1
100
AcDbLine
10
1136
20
-214
11
1089
21
-214
0
LINE
5
313
100
AcDbEntity
8
fixation
6
ByLayer
62
256
370
-1
100
AcDbLine
10
1089
20
-214
11
1089
21
-217
0
LINE
5
314
100
AcDbEntity
8
fixation
6
ByLayer
62
256
370
-1
100
AcDbLine
10
1089
20
-217
11
1136
21
-217
0
LINE
5
315
100
AcDbEntity
8
fixation
6
ByLayer
62
256
370
-1
100
AcDbLine
10
1136
20
-184
11
1136
21
-187
0
LINE
5
316
100
AcDbEntity
8
fixation
6
ByLayer
62
256
370
-1
100
AcDbLine
10
1136
20
-187
11
1136
21
-214
0
LINE
5
317
100
AcDbEntity
8
fixation
6
ByLayer
62
256
370
-1
100
AcDbLine
10
1136
20
-244
11
1089
21
-244
0
LINE
5
318
100
AcDbEntity
8
fixation
6
ByLayer
62
256
370
-1
100
AcDbLine
10
1089
20
-244
11
1089
21
-247
0
LINE
5
319
100
AcDbEntity
8
fixation
6
ByLayer
62
256
370
-1
100
AcDbLine
10
1089
20
-247
11
1136
21
-247
0
LINE
5
31A
100
AcDbEntity
8
fixation
6
ByLayer
62
256
370
-1
100
AcDbLine
10
1136
20
-217
11
1136
21
-244
0
LINE
5
31B
100
AcDbEntity
8
fixation
6
ByLayer
62
256
370
-1
100
AcDbLine
10
1136
20
-274
11
1089
21
-274
0
LINE
5
31C
100
AcDbEntity
8
fixation
6
ByLayer
62
256
370
-1
100
AcDbLine
10
1089
20
-274
11
1089
21
-277
0
LINE
5
31D
100
AcDbEntity
8
fixation
6
ByLayer
62
256
370
-1
100
AcDbLine
10
1089
20
-277
11
1136
21
-277
0
LINE
5
31E
100
AcDbEntity
8
fixation
6
ByLayer
62
256
370
-1
100
AcDbLine
10
1136
20
-247
11
1136
21
-274
0
LINE
5
31F
100
AcDbEntity
8
fixation
6
ByLayer
62
256
370
-1
100
AcDbLine
10
1136
20
-304
11
1089
21
-304
0
LINE
5
320
100
AcDbEntity
8
fixation
6
ByLayer
62
256
370
-1
100
AcDbLine
10
1089
20
-304
11
1089
21
-307
0
LINE
5
321
100
AcDbEntity
8
fixation
6
ByLayer
62
256
370
-1
100
AcDbLine
10
1089
20
-307
11
1136
21
-307
0
LINE
5
322
100
AcDbEntity
8
fixation
6
ByLayer
62
256
370
-1
100
AcDbLine
10
1136
20
-277
11
1136
21
-304
0
LINE
5
323
100
AcDbEntity
8
fixation
6
ByLayer
62
256
370
-1
100
AcDbLine
10
1136
20
-334
11
1089
21
-334
0
LINE
5
324
100
AcDbEntity
8
fixation
6
ByLayer
62
256
370
-1
100
AcDbLine
10
1089
20
-334
11
1089
21
-337
0
LINE
5
325
100
AcDbEntity
8
fixation
6
ByLayer
62
256
370
-1
100
AcDbLine
10
1089
20
-337
11
1136
21
-337
0
LINE
5
326
100
AcDbEntity
8
fixation
6
ByLayer
62
256
370
-1
100
AcDbLine
10
1136
20
-307
11
1136
21
-334
0
LINE
5
327
100
AcDbEntity
8
fixation
6
ByLayer
62
256
370
-1
100
AcDbLine
10
1136
20
-364
11
1089
21
-364
0
LINE
5
328
100
AcDbEntity
8
fixation
6
ByLayer
62
256
370
-1
100
AcDbLine
10
1089
20
-364
11
1089
21
-367
0
LINE
5
329
100
AcDbEntity
8
fixation
6
ByLayer
62
256
370
-1
100
AcDbLine
10
1089
20
-367
11
1136
21
-367
0
LINE
5
32A
100
AcDbEntity
8
fixation
6
ByLayer
62
256
370
-1
100
AcDbLine
10
1136
20
-337
11
1136
21
-364
0
LINE
5
32B
100
AcDbEntity
8
fixation
6
ByLayer
62
256
370
-1
100
AcDbLine
10
1136
20
-394
11
1089
21
-394
0
LINE
5
32C
100
AcDbEntity
8
fixation
6
ByLayer
62
256
370
-1
100
AcDbLine
10
1089
20
-394
11
1089
21
-397
0
LINE
5
32D
100
AcDbEntity
8
fixation
6
ByLayer
62
256
370
-1
100
AcDbLine
10
1089
20
-397
11
1136
21
-397
0
LINE
5
32E
100
AcDbEntity
8
fixation
6
ByLayer
62
256
370
-1
100
AcDbLine
10
1136
20
-367
11
1136
21
-394
0
LINE
5
32F
100
AcDbEntity
8
fixation
6
ByLayer
62
256
370
-1
100
AcDbLine
10
1136
20
-424
11
1089
21
-424
0
LINE
5
330
100
AcDbEntity
8
fixation
6
ByLayer
62
256
370
-1
100
AcDbLine
10
1089
20
-424
11
1089
21
-427
0
LINE
5
331
100
AcDbEntity
8
fixation
6
ByLayer
62
256
370
-1
100
AcDbLine
10
1089
20
-427
11
1136
21
-427
0
LINE
5
332
100
AcDbEntity
8
fixation
6
ByLayer
62
256
370
-1
100
AcDbLine
10
1136
20
-397
11
1136
21
-424
0
LINE
5
333
100
AcDbEntity
8
fixation
6
ByLayer
62
256
370
-1
100
AcDbLine
10
1136
20
-454
11
1089
21
-454
0
LINE
5
334
100
AcDbEntity
8
fixation
6
ByLayer
62
256
370
-1
100
AcDbLine
10
1089
20
-454
11
1089
21
-457
0
LINE
5
335
100
AcDbEntity
8
fixation
6
ByLayer
62
256
370
-1
100
AcDbLine
10
1089
20
-457
11
1136
21
-457
0
LINE
5
336
100
AcDbEntity
8
fixation
6
ByLayer
62
256
370
-1
100
AcDbLine
10
1136
20
-427
11
1136
21
-454
0
LINE
5
337
100
AcDbEntity
8
fixation
6
ByLayer
62
256
370
-1
100
AcDbLine
10
1136
20
-457
11
1136
21
-493
0
LINE
5
338
100
AcDbEntity
8
fixation
6
ByLayer
62
256
370
-1
100
AcDbLine
10
1140
20
-490
11
1160
21
-490
0
LINE
5
339
100
AcDbEntity
8
fixation
6
ByLayer
62
256
370
-1
100
AcDbLine
10
1160
20
-490
11
1160
21
-493
0
LINE
5
33A
100
AcDbEntity
8
fixation
6
ByLayer
62
256
370
-1
100
AcDbLine
10
1160
20
-493
11
1180
21
-493
0
LINE
5
33B
100
AcDbEntity
8
fixation
6
ByLayer
62
256
370
-1
100
AcDbLine
10
1180
20
-493
11
1180
21
-490
0
LINE
5
33C
100
AcDbEntity
8
fixation
6
ByLayer
62
256
370
-1
100
AcDbLine
10
1180
20
-490
11
1200
21
-490
0
LINE
5
33D
100
AcDbEntity
8
fixation
6
ByLayer
62
256
370
-1
100
AcDbLine
10
1200
20
-490
11
1200
21
-493
0
LINE
5
33E
100
AcDbEntity
8
fixation
6
ByLayer
62
256
370
-1
100
AcDbLine
10
1140
20
-187
11
1160
21
-187
0
LINE
5
33F
100
AcDbEntity
8
fixation
6
ByLayer
62
256
370
-1
100
AcDbLine
10
1160
20
-187
11
1160
21
-184
0
LINE
5
340
100
AcDbEntity
8
fixation
6
ByLayer
62
256
370
-1
100
AcDbLine
10
1160
20
-184
11
1180
21
-184
0
LINE
5
341
100
AcDbEntity
8
fixation
6
ByLayer
62
256
370
-1
100
AcDbLine
10
1180
20
-184
11
1180
21
-187
0
LINE
5
342
100
AcDbEntity
8
fixation
6
ByLayer
62
256
370
-1
100
AcDbLine
10
1180
20
-187
11
1200
21
-187
0
LINE
5
343
100
AcDbEntity
8
fixation
6
ByLayer
62
256
370
-1
100
AcDbLine
10
1200
20
-187
11
1200
21
-184
0
LINE
5
344
100
AcDbEntity
8
fixation
6
ByLayer
62
256
370
-1
100
AcDbLine
10
1140
20
-490
11
1140
21
-480
0
LINE
5
345
100
AcDbEntity
8
fixation
6
ByLayer
62
256
370
-1
100
AcDbLine
10
1140
20
-480
11
1137
21
-480
0
LINE
5
346
100
AcDbEntity
8
fixation
6
ByLayer
62
256
370
-1
100
AcDbLine
10
1137
20
-480
11
1137
21
-460
0
LINE
5
347
100
AcDbEntity
8
fixation
6
ByLayer
62
256
370
-1
100
AcDbLine
10
1137
20
-460
11
1140
21
-460
0
LINE
5
348
100
AcDbEntity
8
fixation
6
ByLayer
62
256
370
-1
100
AcDbLine
10
1140
20
-460
11
1140
21
-419
0
LINE
5
349
100
AcDbEntity
8
fixation
6
ByLayer
62
256
370
-1
100
AcDbLine
10
1140
20
-419
11
1137
21
-419
0
LINE
5
34A
100
AcDbEntity
8
fixation
6
ByLayer
62
256
370
-1
100
AcDbLine
10
1137
20
-419
11
1137
21
-399
0
LINE
5
34B
100
AcDbEntity
8
fixation
6
ByLayer
62
256
370
-1
100
AcDbLine
10
1137
20
-399
11
1140
21
-399
0
LINE
5
34C
100
AcDbEntity
8
fixation
6
ByLayer
62
256
370
-1
100
AcDbLine
10
1140
20
-399
11
1140
21
-379
0
LINE
5
34D
100
AcDbEntity
8
fixation
6
ByLayer
62
256
370
-1
100
AcDbLine
10
1140
20
-379
11
1137
21
-379
0
LINE
5
34E
100
AcDbEntity
8
fixation
6
ByLayer
62
256
370
-1
100
AcDbLine
10
1137
20
-379
11
1137
21
-359
0
LINE
5
34F
100
AcDbEntity
8
fixation
6
ByLayer
62
256
370
-1
100
AcDbLine
10
1137
20
-359
11
1140
21
-359
0
LINE
5
350
100
AcDbEntity
8
fixation
6
ByLayer
62
256
370
-1
100
AcDbLine
10
1140
20
-359
11
1140
21
-318
0
LINE
5
351
100
AcDbEntity
8
fixation
6
ByLayer
62
256
370
-1
100
AcDbLine
10
1140
20
-318
11
1137
21
-318
0
LINE
5
352
100
AcDbEntity
8
fixation
6
ByLayer
62
256
370
-1
100
AcDbLine
10
1137
20
-318
11
1137
21
-298
0
LINE
5
353
100
AcDbEntity
8
fixation
6
ByLayer
62
256
370
-1
100
AcDbLine
10
1137
20
-298
11
1140
21
-298
0
LINE
5
354
100
AcDbEntity
8
fixation
6
ByLayer
62
256
370
-1
100
AcDbLine
10
1140
20
-298
11
1140
21
-278
0
LINE
5
355
100
AcDbEntity
8
fixation
6
ByLayer
62
256
370
-1
100
AcDbLine
10
1140
20
-278
11
1137
21
-278
0
LINE
5
356
100
AcDbEntity
8
fixation
6
ByLayer
62
256
370
-1
100
AcDbLine
10
1137
20
-278
11
1137
21
-258
0
LINE
5
357
100
AcDbEntity
8
fixation
6
ByLayer
62
256
370
-1
100
AcDbLine
10
1137
20
-258
11
1140
21
-258
0
LINE
5
358
100
AcDbEntity
8
fixation
6
ByLayer
62
256
370
-1
100
AcDbLine
10
1140
20
-258
11
1140
21
-217
0
LINE
5
359
100
AcDbEntity
8
fixation
6
ByLayer
62
256
370
-1
100
AcDbLine
10
1140
20
-217
11
1137
21
-217
0
LINE
5
35A
100
AcDbEntity
8
fixation
6
ByLayer
62
256
370
-1
100
AcDbLine
10
1137
20
-217
11
1137
21
-197
0
LINE
5
35B
100
AcDbEntity
8
fixation
6
ByLayer
62
256
370
-1
100
AcDbLine
10
1137
20
-197
11
1140
21
-197
0
LINE
5
35C
100
AcDbEntity
8
fixation
6
ByLayer
62
256
370
-1
100
AcDbLine
10
1140
20
-197
11
1140
21
-187
0
LINE
5
35D
100
AcDbEntity
8
fixation
6
ByLayer
62
256
370
-1
100
AcDbLine
10
1200
20
-493
11
1217
21
-493
0
LINE
5
35E
100
AcDbEntity
8
fixation
6
ByLayer
62
256
370
-1
100
AcDbLine
10
1200
20
-184
11
1217
21
-184
0
LINE
5
35F
100
AcDbEntity
8
fixation
6
ByLayer
62
256
370
-1
100
AcDbLine
10
1217
20
-214
11
1170
21
-214
0
LINE
5
360
100
AcDbEntity
8
fixation
6
ByLayer
62
256
370
-1
100
AcDbLine
10
1170
20
-214
11
1170
21
-217
0
LINE
5
361
100
AcDbEntity
8
fixation
6
ByLayer
62
256
370
-1
100
AcDbLine
10
1170
20
-217
11
1217
21
-217
0
LINE
5
362
100
AcDbEntity
8
fixation
6
ByLayer
62
256
370
-1
100
AcDbLine
10
1217
20
-184
11
1217
21
-187
0
LINE
5
363
100
AcDbEntity
8
fixation
6
ByLayer
62
256
370
-1
100
AcDbLine
10
1217
20
-187
11
1217
21
-214
0
LINE
5
364
100
AcDbEntity
8
fixation
6
ByLayer
62
256
370
-1
100
AcDbLine
10
1217
20
-244
11
1170
21
-244
0
LINE
5
365
100
AcDbEntity
8
fixation
6
ByLayer
62
256
370
-1
100
AcDbLine
10
1170
20
-244
11
1170
21
-247
0
LINE
5
366
100
AcDbEntity
8
fixation
6
ByLayer
62
256
370
-1
100
AcDbLine
10
1170
20
-247
11
1217
21
-247
0
LINE
5
367
100
AcDbEntity
8
fixation
6
ByLayer
62
256
370
-1
100
AcDbLine
10
1217
20
-217
11
1217
21
-244
0
LINE
5
368
100
AcDbEntity
8
fixation
6
ByLayer
62
256
370
-1
100
AcDbLine
10
1217
20
-274
11
1170
21
-274
0
LINE
5
369
100
AcDbEntity
8
fixation
6
ByLayer
62
256
370
-1
100
AcDbLine
10
1170
20
-274
11
1170
21
-277
0
LINE
5
36A
100
AcDbEntity
8
fixation
6
ByLayer
62
256
370
-1
100
AcDbLine
10
1170
20
-277
11
1217
21
-277
0
LINE
5
36B
100
AcDbEntity
8
fixation
6
ByLayer
62
256
370
-1
100
AcDbLine
10
1217
20
-247
11
1217
21
-274
0
LINE
5
36C
100
AcDbEntity
8
fixation
6
ByLayer
62
256
370
-1
100
AcDbLine
10
1217
20
-304
11
1170
21
-304
0
LINE
5
36D
100
AcDbEntity
8
fixation
6
ByLayer
62
256
370
-1
100
AcDbLine
10
1170
20
-304
11
1170
21
-307
0
LINE
5
36E
100
AcDbEntity
8
fixation
6
ByLayer
62
256
370
-1
100
AcDbLine
10
1170
20
-307
11
1217
21
-307
0
LINE
5
36F
100
AcDbEntity
8
fixation
6
ByLayer
62
256
370
-1
100
AcDbLine
10
1217
20
-277
11
1217
21
-304
0
LINE
5
370
100
AcDbEntity
8
fixation
6
ByLayer
62
256
370
-1
100
AcDbLine
10
1217
20
-334
11
1170
21
-334
0
LINE
5
371
100
AcDbEntity
8
fixation
6
ByLayer
62
256
370
-1
100
AcDbLine
10
1170
20
-334
11
1170
21
-337
0
LINE
5
372
100
AcDbEntity
8
fixation
6
ByLayer
62
256
370
-1
100
AcDbLine
10
1170
20
-337
11
1217
21
-337
0
LINE
5
373
100
AcDbEntity
8
fixation
6
ByLayer
62
256
370
-1
100
AcDbLine
10
1217
20
-307
11
1217
21
-334
0
LINE
5
374
100
AcDbEntity
8
fixation
6
ByLayer
62
256
370
-1
100
AcDbLine
10
1217
20
-364
11
1170
21
-364
0
LINE
5
375
100
AcDbEntity
8
fixation
6
ByLayer
62
256
370
-1
100
AcDbLine
10
1170
20
-364
11
1170
21
-367
0
LINE
5
376
100
AcDbEntity
8
fixation
6
ByLayer
62
256
370
-1
100
AcDbLine
10
1170
20
-367
11
1217
21
-367
0
LINE
5
377
100
AcDbEntity
8
fixation
6
ByLayer
62
256
370
-1
100
AcDbLine
10
1217
20
-337
11
1217
21
-364
0
LINE
5
378
100
AcDbEntity
8
fixation
6
ByLayer
62
256
370
-1
100
AcDbLine
10
1217
20
-394
11
1170
21
-394
0
LINE
5
379
100
AcDbEntity
8
fixation
6
ByLayer
62
256
370
-1
100
AcDbLine
10
1170
20
-394
11
1170
21
-397
0
LINE
5
37A
100
AcDbEntity
8
fixation
6
ByLayer
62
256
370
-1
100
AcDbLine
10
1170
20
-397
11
1217
21
-397
0
LINE
5
37B
100
AcDbEntity
8
fixation
6
ByLayer
62
256
370
-1
100
AcDbLine
10
1217
20
-367
11
1217
21
-394
0
LINE
5
37C
100
AcDbEntity
8
fixation
6
ByLayer
62
256
370
-1
100
AcDbLine
10
1217
20
-424
11
1170
21
-424
0
LINE
5
37D
100
AcDbEntity
8
fixation
6
ByLayer
62
256
370
-1
100
AcDbLine
10
1170
20
-424
11
1170
21
-427
0
LINE
5
37E
100
AcDbEntity
8
fixation
6
ByLayer
62
256
370
-1
100
AcDbLine
10
1170
20
-427
11
1217
21
-427
0
LINE
5
37F
100
AcDbEntity
8
fixation
6
ByLayer
62
256
370
-1
100
AcDbLine
10
1217
20
-397
11
1217
21
-424
0
LINE
5
380
100
AcDbEntity
8
fixation
6
ByLayer
62
256
370
-1
100
AcDbLine
10
1217
20
-454
11
1170
21
-454
0
LINE
5
381
100
AcDbEntity
8
fixation
6
ByLayer
62
256
370
-1
100
AcDbLine
10
1170
20
-454
11
1170
21
-457
0
LINE
5
382
100
AcDbEntity
8
fixation
6
ByLayer
62
256
370
-1
100
AcDbLine
10
1170
20
-457
11
1217
21
-457
0
LINE
5
383
100
AcDbEntity
8
fixation
6
ByLayer
62
256
370
-1
100
AcDbLine
10
1217
20
-427
11
1217
21
-454
0
LINE
5
384
100
AcDbEntity
8
fixation
6
ByLayer
62
256
370
-1
100
AcDbLine
10
1217
20
-457
11
1217
21
-493
0
LINE
5
385
100
AcDbEntity
8
fixation
6
ByLayer
62
256
370
-1
100
AcDbLine
10
1221
20
-490
11
1241
21
-490
0
LINE
5
386
100
AcDbEntity
8
fixation
6
ByLayer
62
256
370
-1
100
AcDbLine
10
1241
20
-490
11
1241
21
-493
0
LINE
5
387
100
AcDbEntity
8
fixation
6
ByLayer
62
256
370
-1
100
AcDbLine
10
1241
20
-493
11
1261
21
-493
0
LINE
5
388
100
AcDbEntity
8
fixation
6
ByLayer
62
256
370
-1
100
AcDbLine
10
1261
20
-493
11
1261
21
-490
0
LINE
5
389
100
AcDbEntity
8
fixation
6
ByLayer
62
256
370
-1
100
AcDbLine
10
1261
20
-490
11
1281
21
-490
0
LINE
5
38A
100
AcDbEntity
8
fixation
6
ByLayer
62
256
370
-1
100
AcDbLine
10
1281
20
-490
11
1281
21
-493
0
LINE
5
38B
100
AcDbEntity
8
fixation
6
ByLayer
62
256
370
-1
100
AcDbLine
10
1221
20
-187
11
1241
21
-187
0
LINE
5
38C
100
AcDbEntity
8
fixation
6
ByLayer
62
256
370
-1
100
AcDbLine
10
1241
20
-187
11
1241
21
-184
0
LINE
5
38D
100
AcDbEntity
8
fixation
6
ByLayer
62
256
370
-1
100
AcDbLine
10
1241
20
-184
11
1261
21
-184
0
LINE
5
38E
100
AcDbEntity
8
fixation
6
ByLayer
62
256
370
-1
100
AcDbLine
10
1261
20
-184
11
1261
21
-187
0
LINE
5
38F
100
AcDbEntity
8
fixation
6
ByLayer
62
256
370
-1
100
AcDbLine
10
1261
20
-187
11
1281
21
-187
0
LINE
5
390
100
AcDbEntity
8
fixation
6
ByLayer
62
256
370
-1
100
AcDbLine
10
1281
20
-187
11
1281
21
-184
0
LINE
5
391
100
AcDbEntity
8
fixation
6
ByLayer
62
256
370
-1
100
AcDbLine
10
1221
20
-490
11
1221
21
-480
0
LINE
5
392
100
AcDbEntity
8
fixation
6
ByLayer
62
256
370
-1
100
AcDbLine
10
1221
20
-480
11
1218
21
-480
0
LINE
5
393
100
AcDbEntity
8
fixation
6
ByLayer
62
256
370
-1
100
AcDbLine
10
1218
20
-480
11
1218
21
-460
0
LINE
5
394
100
AcDbEntity
8
fixation
6
ByLayer
62
256
370
-1
100
AcDbLine
10
1218
20
-460
11
1221
21
-460
0
LINE
5
395
100
AcDbEntity
8
fixation
6
ByLayer
62
256
370
-1
100
AcDbLine
10
1221
20
-460
11
1221
21
-419
0
LINE
5
396
100
AcDbEntity
8
fixation
6
ByLayer
62
256
370
-1
100
AcDbLine
10
1221
20
-419
11
1218
21
-419
0
LINE
5
397
100
AcDbEntity
8
fixation
6
ByLayer
62
256
370
-1
100
AcDbLine
10
1218
20
-419
11
1218
21
-399
0
LINE
5
398
100
AcDbEntity
8
fixation
6
ByLayer
62
256
370
-1
100
AcDbLine
10
1218
20
-399
11
1221
21
-399
0
LINE
5
399
100
AcDbEntity
8
fixation
6
ByLayer
62
256
370
-1
100
AcDbLine
10
1221
20
-399
11
1221
21
-379
0
LINE
5
39A
100
AcDbEntity
8
fixation
6
ByLayer
62
256
370
-1
100
AcDbLine
10
1221
20
-379
11
1218
21
-379
0
LINE
5
39B
100
AcDbEntity
8
fixation
6
ByLayer
62
256
370
-1
100
AcDbLine
10
1218
20
-379
11
1218
21
-359
0
LINE
5
39C
100
AcDbEntity
8
fixation
6
ByLayer
62
256
370
-1
100
AcDbLine
10
1218
20
-359
11
1221
21
-359
0
LINE
5
39D
100
AcDbEntity
8
fixation
6
ByLayer
62
256
370
-1
100
AcDbLine
10
1221
20
-359
11
1221
21
-318
0
LINE
5
39E
100
AcDbEntity
8
fixation
6
ByLayer
62
256
370
-1
100
AcDbLine
10
1221
20
-318
11
1218
21
-318
0
LINE
5
39F
100
AcDbEntity
8
fixation
6
ByLayer
62
256
370
-1
100
AcDbLine
10
1218
20
-318
11
1218
21
-298
0
LINE
5
3A0
100
AcDbEntity
8
fixation
6
ByLayer
62
256
370
-1
100
AcDbLine
10
1218
20
-298
11
1221
21
-298
0
LINE
5
3A1
100
AcDbEntity
8
fixation
6
ByLayer
62
256
370
-1
100
AcDbLine
10
1221
20
-298
11
1221
21
-278
0
LINE
5
3A2
100
AcDbEntity
8
fixation
6
ByLayer
62
256
370
-1
100
AcDbLine
10
1221
20
-278
11
1218
21
-278
0
LINE
5
3A3
100
AcDbEntity
8
fixation
6
ByLayer
62
256
370
-1
100
AcDbLine
10
1218
20
-278
11
1218
21
-258
0
LINE
5
3A4
100
AcDbEntity
8
fixation
6
ByLayer
62
256
370
-1
100
AcDbLine
10
1218
20
-258
11
1221
21
-258
0
LINE
5
3A5
100
AcDbEntity
8
fixation
6
ByLayer
62
256
370
-1
100
AcDbLine
10
1221
20
-258
11
1221
21
-217
0
LINE
5
3A6
100
AcDbEntity
8
fixation
6
ByLayer
62
256
370
-1
100
AcDbLine
10
1221
20
-217
11
1218
21
-217
0
LINE
5
3A7
100
AcDbEntity
8
fixation
6
ByLayer
62
256
370
-1
100
AcDbLine
10
1218
20
-217
11
1218
21
-197
0
LINE
5
3A8
100
AcDbEntity
8
fixation
6
ByLayer
62
256
370
-1
100
AcDbLine
10
1218
20
-197
11
1221
21
-197
0
LINE
5
3A9
100
AcDbEntity
8
fixation
6
ByLayer
62
256
370
-1
100
AcDbLine
10
1221
20
-197
11
1221
21
-187
0
LINE
5
3AA
100
AcDbEntity
8
fixation
6
ByLayer
62
256
370
-1
100
AcDbLine
10
1281
20
-493
11
1298
21
-493
0
LINE
5
3AB
100
AcDbEntity
8
fixation
6
ByLayer
62
256
370
-1
100
AcDbLine
10
1281
20
-184
11
1298
21
-184
0
LINE
5
3AC
100
AcDbEntity
8
fixation
6
ByLayer
62
256
370
-1
100
AcDbLine
10
1298
20
-214
11
1251
21
-214
0
LINE
5
3AD
100
AcDbEntity
8
fixation
6
ByLayer
62
256
370
-1
100
AcDbLine
10
1251
20
-214
11
1251
21
-217
0
LINE
5
3AE
100
AcDbEntity
8
fixation
6
ByLayer
62
256
370
-1
100
AcDbLine
10
1251
20
-217
11
1298
21
-217
0
LINE
5
3AF
100
AcDbEntity
8
fixation
6
ByLayer
62
256
370
-1
100
AcDbLine
10
1298
20
-184
11
1298
21
-187
0
LINE
5
3B0
100
AcDbEntity
8
fixation
6
ByLayer
62
256
370
-1
100
AcDbLine
10
1298
20
-187
11
1298
21
-214
0
LINE
5
3B1
100
AcDbEntity
8
fixation
6
ByLayer
62
256
370
-1
100
AcDbLine
10
1298
20
-244
11
1251
21
-244
0
LINE
5
3B2
100
AcDbEntity
8
fixation
6
ByLayer
62
256
370
-1
100
AcDbLine
10
1251
20
-244
11
1251
21
-247
0
LINE
5
3B3
100
AcDbEntity
8
fixation
6
ByLayer
62
256
370
-1
100
AcDbLine
10
1251
20
-247
11
1298
21
-247
0
LINE
5
3B4
100
AcDbEntity
8
fixation
6
ByLayer
62
256
370
-1
100
AcDbLine
10
1298
20
-217
11
1298
21
-244
0
LINE
5
3B5
100
AcDbEntity
8
fixation
6
ByLayer
62
256
370
-1
100
AcDbLine
10
1298
20
-274
11
1251
21
-274
0
LINE
5
3B6
100
AcDbEntity
8
fixation
6
ByLayer
62
256
370
-1
100
AcDbLine
10
1251
20
-274
11
1251
21
-277
0
LINE
5
3B7
100
AcDbEntity
8
fixation
6
ByLayer
62
256
370
-1
100
AcDbLine
10
1251
20
-277
11
1298
21
-277
0
LINE
5
3B8
100
AcDbEntity
8
fixation
6
ByLayer
62
256
370
-1
100
AcDbLine
10
1298
20
-247
11
1298
21
-274
0
LINE
5
3B9
100
AcDbEntity
8
fixation
6
ByLayer
62
256
370
-1
100
AcDbLine
10
1298
20
-304
11
1251
21
-304
0
LINE
5
3BA
100
AcDbEntity
8
fixation
6
ByLayer
62
256
370
-1
100
AcDbLine
10
1251
20
-304
11
1251
21
-307
0
LINE
5
3BB
100
AcDbEntity
8
fixation
6
ByLayer
62
256
370
-1
100
AcDbLine
10
1251
20
-307
11
1298
21
-307
0
LINE
5
3BC
100
AcDbEntity
8
fixation
6
ByLayer
62
256
370
-1
100
AcDbLine
10
1298
20
-277
11
1298
21
-304
0
LINE
5
3BD
100
AcDbEntity
8
fixation
6
ByLayer
62
256
370
-1
100
AcDbLine
10
1298
20
-334
11
1251
21
-334
0
LINE
5
3BE
100
AcDbEntity
8
fixation
6
ByLayer
62
256
370
-1
100
AcDbLine
10
1251
20
-334
11
1251
21
-337
0
LINE
5
3BF
100
AcDbEntity
8
fixation
6
ByLayer
62
256
370
-1
100
AcDbLine
10
1251
20
-337
11
1298
21
-337
0
LINE
5
3C0
100
AcDbEntity
8
fixation
6
ByLayer
62
256
370
-1
100
AcDbLine
10
1298
20
-307
11
1298
21
-334
0
LINE
5
3C1
100
AcDbEntity
8
fixation
6
ByLayer
62
256
370
-1
100
AcDbLine
10
1298
20
-364
11
1251
21
-364
0
LINE
5
3C2
100
AcDbEntity
8
fixation
6
ByLayer
62
256
370
-1
100
AcDbLine
10
1251
20
-364
11
1251
21
-367
0
LINE
5
3C3
100
AcDbEntity
8
fixation
6
ByLayer
62
256
370
-1
100
AcDbLine
10
1251
20
-367
11
1298
21
-367
0
LINE
5
3C4
100
AcDbEntity
8
fixation
6
ByLayer
62
256
370
-1
100
AcDbLine
10
1298
20
-337
11
1298
21
-364
0
LINE
5
3C5
100
AcDbEntity
8
fixation
6
ByLayer
62
256
370
-1
100
AcDbLine
10
1298
20
-394
11
1251
21
-394
0
LINE
5
3C6
100
AcDbEntity
8
fixation
6
ByLayer
62
256
370
-1
100
AcDbLine
10
1251
20
-394
11
1251
21
-397
0
LINE
5
3C7
100
AcDbEntity
8
fixation
6
ByLayer
62
256
370
-1
100
AcDbLine
10
1251
20
-397
11
1298
21
-397
0
LINE
5
3C8
100
AcDbEntity
8
fixation
6
ByLayer
62
256
370
-1
100
AcDbLine
10
1298
20
-367
11
1298
21
-394
0
LINE
5
3C9
100
AcDbEntity
8
fixation
6
ByLayer
62
256
370
-1
100
AcDbLine
10
1298
20
-424
11
1251
21
-424
0
LINE
5
3CA
100
AcDbEntity
8
fixation
6
ByLayer
62
256
370
-1
100
AcDbLine
10
1251
20
-424
11
1251
21
-427
0
LINE
5
3CB
100
AcDbEntity
8
fixation
6
ByLayer
62
256
370
-1
100
AcDbLine
10
1251
20
-427
11
1298
21
-427
0
LINE
5
3CC
100
AcDbEntity
8
fixation
6
ByLayer
62
256
370
-1
100
AcDbLine
10
1298
20
-397
11
1298
21
-424
0
LINE
5
3CD
100
AcDbEntity
8
fixation
6
ByLayer
62
256
370
-1
100
AcDbLine
10
1298
20
-454
11
1251
21
-454
0
LINE
5
3CE
100
AcDbEntity
8
fixation
6
ByLayer
62
256
370
-1
100
AcDbLine
10
1251
20
-454
11
1251
21
-457
0
LINE
5
3CF
100
AcDbEntity
8
fixation
6
ByLayer
62
256
370
-1
100
AcDbLine
10
1251
20
-457
11
1298
21
-457
0
LINE
5
3D0
100
AcDbEntity
8
fixation
6
ByLayer
62
256
370
-1
100
AcDbLine
10
1298
20
-427
11
1298
21
-454
0
LINE
5
3D1
100
AcDbEntity
8
fixation
6
ByLayer
62
256
370
-1
100
AcDbLine
10
1298
20
-457
11
1298
21
-493
0
LINE
5
3D2
100
AcDbEntity
8
couvercle
6
ByLayer
62
256
370
-1
100
AcDbLine
10
389
20
0
11
692
21
0
0
LINE
5
3D3
100
AcDbEntity
8
couvercle
6
ByLayer
62
256
370
-1
100
AcDbLine
10
692
20
0
11
692
21
306
0
LINE
5
3D4
100
AcDbEntity
8
couvercle
6
ByLayer
62
256
370
-1
100
AcDbLine
10
692
20
306
11
389
21
306
0
LINE
5
3D5
100
AcDbEntity
8
couvercle
6
ByLayer
62
256
370
-1
100
AcDbLine
10
389
20
306
11
389
21
0
0
LINE
5
3D6
100
AcDbEntity
8
separateur
6
ByLayer
62
256
370
-1
100
AcDbLine
10
793
20
0
11
888
21
0
0
LINE
5
3D7
100
AcDbEntity
8
separateur
6
ByLayer
62
256
370
-1
100
AcDbLine
10
888
20
0
11
888
21
30
0
LINE
5
3D8
100
AcDbEntity
8
separateur
6
ByLayer
62
256
370
-1
100
AcDbLine
10
888
20
30
11
891
21
30
0
LINE
5
3D9
100
AcDbEntity
8
separateur
6
ByLayer
62
256
370
-1
100
AcDbLine
10
891
20
30
11
891
21
50
0
LINE
5
3DA
100
AcDbEntity
8
separateur
6
ByLayer
62
256
370
-1
100
AcDbLine
10
891
20
50
11
790
21
50
0
LINE
5
3DB
100
AcDbEntity
8
separateur
6
ByLayer
62
256
370
-1
100
AcDbLine
10
790
20
50
11
790
21
30
0
LINE
5
3DC
100
AcDbEntity
8
separateur
6
ByLayer
62
256
370
-1
100
AcDbLine
10
790
20
30
11
793
21
30
0
LINE
5
3DD
100
AcDbEntity
8
separateur
6
ByLayer
62
256
370
-1
100
AcDbLine
10
793
20
30
11
793
21
0
0
LINE
5
3DE
100
AcDbEntity
8
separateur
6
ByLayer
62
256
370
-1
100
AcDbLine
10
793
20
50
11
888
21
50
0
LINE
5
3DF
100
AcDbEntity
8
separateur
6
ByLayer
62
256
370
-1
100
AcDbLine
10
888
20
50
11
888
21
80
0
LINE
5
3E0
100
AcDbEntity
8
separateur
6
ByLayer
62
256
370
-1
100
AcDbLine
10
888
20
80
11
891
21
80
0
LINE
5
3E1
100
AcDbEntity
8
separateur
6
ByLayer
62
256
370
-1
100
AcDbLine
10
891
20
80
11
891
21
100
0
LINE
5
3E2
100
AcDbEntity
8
separateur
6
ByLayer
62
256
370
-1
100
AcDbLine
10
891
20
100
11
790
21
100
0
LINE
5
3E3
100
AcDbEntity
8
separateur
6
ByLayer
62
256
370
-1
100
AcDbLine
10
790
20
100
11
790
21
80
0
LINE
5
3E4
100
AcDbEntity
8
separateur
6
ByLayer
62
256
370
-1
100
AcDbLine
10
790
20
80
11
793
21
80
0
LINE
5
3E5
100
AcDbEntity
8
separateur
6
ByLayer
62
256
370
-1
100
AcDbLine
10
793
20
80
11
793
21
50
0
LINE
5
3E6
100
AcDbEntity
8
separateur
6
ByLayer
62
256
370
-1
100
AcDbLine
10
793
20
100
11
888
21
100
0
LINE
5
3E7
100
AcDbEntity
8
separateur
6
ByLayer
62
256
370
-1
100
AcDbLine
10
888
20
100
11
888
21
130
0
LINE
5
3E8
100
AcDbEntity
8
separateur
6
ByLayer
62
256
370
-1
100
AcDbLine
10
888
20
130
11
891
21
130
0
LINE
5
3E9
100
AcDbEntity
8
separateur
6
ByLayer
62
256
370
-1
100
AcDbLine
10
891
20
130
11
891
21
150
0
LINE
5
3EA
100
AcDbEntity
8
separateur
6
ByLayer
62
256
370
-1
100
AcDbLine
10
891
20
150
11
790
21
150
0
LINE
5
3EB
100
AcDbEntity
8
separateur
6
ByLayer
62
256
370
-1
100
AcDbLine
10
790
20
150
11
790
21
130
0
LINE
5
3EC
100
AcDbEntity
8
separateur
6
ByLayer
62
256
370
-1
100
AcDbLine
10
790
20
130
11
793
21
130
0
LINE
5
3ED
100
AcDbEntity
8
separateur
6
ByLayer
62
256
370
-1
100
AcDbLine
10
793
20
130
11
793
21
100
0
LINE
5
3EE
100
AcDbEntity
8
separateur
6
ByLayer
62
256
370
-1
100
AcDbLine
10
793
20
150
11
888
21
150
0
LINE
5
3EF
100
AcDbEntity
8
separateur
6
ByLayer
62
256
370
-1
100
AcDbLine
10
888
20
150
11
888
21
180
0
LINE
5
3F0
100
AcDbEntity
8
separateur
6
ByLayer
62
256
370
-1
100
AcDbLine
10
888
20
180
11
891
21
180
0
LINE
5
3F1
100
AcDbEntity
8
separateur
6
ByLayer
62
256
370
-1
100
AcDbLine
10
891
20
180
11
891
21
200
0
LINE
5
3F2
100
AcDbEntity
8
separateur
6
ByLayer
62
256
370
-1
100
AcDbLine
10
891
20
200
11
790
21
200
0
LINE
5
3F3
100
AcDbEntity
8
separateur
6
ByLayer
62
256
370
-1
100
AcDbLine
10
790
20
200
11
790
21
180
0
LINE
5
3F4
100
AcDbEntity
8
separateur
6
ByLayer
62
256
370
-1
100
AcDbLine
10
790
20
180
11
793
21
180
0
LINE
5
3F5
100
AcDbEntity
8
separateur
6
ByLayer
62
256
370
-1
100
AcDbLine
10
793
20
180
11
793
21
150
0
LINE
5
3F6
100
AcDbEntity
8
separateur
6
ByLayer
62
256
370
-1
100
AcDbLine
10
793
20
200
11
888
21
200
0
LINE
5
3F7
100
AcDbEntity
8
separateur
6
ByLayer
62
256
370
-1
100
AcDbLine
10
888
20
200
11
888
21
230
0
LINE
5
3F8
100
AcDbEntity
8
separateur
6
ByLayer
62
256
370
-1
100
AcDbLine
10
888
20
230
11
891
21
230
0
LINE
5
3F9
100
AcDbEntity
8
separateur
6
ByLayer
62
256
370
-1
100
AcDbLine
10
891
20
230
11
891
21
250
0
LINE
5
3FA
100
AcDbEntity
8
separateur
6
ByLayer
62
256
370
-1
100
AcDbLine
10
891
20
250
11
790
21
250
0
LINE
5
3FB
100
AcDbEntity
8
separateur
6
ByLayer
62
256
370
-1
100
AcDbLine
10
790
20
250
11
790
21
230
0
LINE
5
3FC
100
AcDbEntity
8
separateur
6
ByLayer
62
256
370
-1
100
AcDbLine
10
790
20
230
11
793
21
230
0
LINE
5
3FD
100
AcDbEntity
8
separateur
6
ByLayer
62
256
370
-1
100
AcDbLine
10
793
20
230
11
793
21
200
0
LINE
5
3FE
100
AcDbEntity
8
separateur
6
ByLayer
62
256
370
-1
100
AcDbLine
10
793
20
250
11
888
21
250
0
LINE
5
3FF
100
AcDbEntity
8
separateur
6
ByLayer
62
256
370
-1
100
AcDbLine
10
888
20
250
11
888
21
280
0
LINE
5
400
100
AcDbEntity
8
separateur
6
ByLayer
62
256
370
-1
100
AcDbLine
10
888
20
280
11
891
21
280
0
LINE
5
401
100
AcDbEntity
8
separateur
6
ByLayer
62
256
370
-1
100
AcDbLine
10
891
20
280
11
891
21
300
0
LINE
5
402
100
AcDbEntity
8
separateur
6
ByLayer
62
256
370
-1
100
AcDbLine
10
790
20
300
11
790
21
280
0
LINE
5
403
100
AcDbEntity
8
separateur
6
ByLayer
62
256
370
-1
100
AcDbLine
10
790
20
280
11
793
21
280
0
LINE
5
404
100
AcDbEntity
8
separateur
6
ByLayer
62
256
370
-1
100
AcDbLine
10
793
20
280
11
793
21
250
0
LINE
5
405
100
AcDbEntity
8
separateur
6
ByLayer
62
256
370
-1
100
AcDbLine
10
790
20
300
11
891
21
300
0
LINE
5
406
100
AcDbEntity
8
separateur
6
ByLayer
62
256
370
-1
100
AcDbLine
10
790
20
300
11
695
21
300
0
LINE
5
407
100
AcDbEntity
8
separateur
6
ByLayer
62
256
370
-1
100
AcDbLine
10
695
20
300
11
695
21
270
0
LINE
5
408
100
AcDbEntity
8
separateur
6
ByLayer
62
256
370
-1
100
AcDbLine
10
695
20
270
11
692
21
270
0
LINE
5
409
100
AcDbEntity
8
separateur
6
ByLayer
62
256
370
-1
100
AcDbLine
10
692
20
270
11
692
21
250
0
LINE
5
40A
100
AcDbEntity
8
separateur
6
ByLayer
62
256
370
-1
100
AcDbLine
10
692
20
250
11
793
21
250
0
LINE
5
40B
100
AcDbEntity
8
separateur
6
ByLayer
62
256
370
-1
100
AcDbLine
10
793
20
250
11
793
21
270
0
LINE
5
40C
100
AcDbEntity
8
separateur
6
ByLayer
62
256
370
-1
100
AcDbLine
10
793
20
270
11
790
21
270
0
LINE
5
40D
100
AcDbEntity
8
separateur
6
ByLayer
62
256
370
-1
100
AcDbLine
10
790
20
270
11
790
21
300
0
LINE
5
40E
100
AcDbEntity
8
separateur
6
ByLayer
62
256
370
-1
100
AcDbLine
10
790
20
250
11
695
21
250
0
LINE
5
40F
100
AcDbEntity
8
separateur
6
ByLayer
62
256
370
-1
100
AcDbLine
10
695
20
250
11
695
21
220
0
LINE
5
410
100
AcDbEntity
8
separateur
6
ByLayer
62
256
370
-1
100
AcDbLine
10
695
20
220
11
692
21
220
0
LINE
5
411
100
AcDbEntity
8
separateur
6
ByLayer
62
256
370
-1
100
AcDbLine
10
692
20
220
11
692
21
200
0
LINE
5
412
100
AcDbEntity
8
separateur
6
ByLayer
62
256
370
-1
100
AcDbLine
10
692
20
200
11
793
21
200
0
LINE
5
413
100
AcDbEntity
8
separateur
6
ByLayer
62
256
370
-1
100
AcDbLine
10
793
20
200
11
793
21
220
0
LINE
5
414
100
AcDbEntity
8
separateur
6
ByLayer
62
256
370
-1
100
AcDbLine
10
793
20
220
11
790
21
220
0
LINE
5
415
100
AcDbEntity
8
separateur
6
ByLayer
62
256
370
-1
100
AcDbLine
10
790
20
220
11
790
21
250
0
LINE
5
416
100
AcDbEntity
8
separateur
6
ByLayer
62
256
370
-1
100
AcDbLine
10
790
20
200
11
695
21
200
0
LINE
5
417
100
AcDbEntity
8
separateur
6
ByLayer
62
256
370
-1
100
AcDbLine
10
695
20
200
11
695
21
170
0
LINE
5
418
100
AcDbEntity
8
separateur
6
ByLayer
62
256
370
-1
100
AcDbLine
10
695
20
170
11
692
21
170
0
LINE
5
419
100
AcDbEntity
8
separateur
6
ByLayer
62
256
370
-1
100
AcDbLine
10
692
20
170
11
692
21
150
0
LINE
5
41A
100
AcDbEntity
8
separateur
6
ByLayer
62
256
370
-1
100
AcDbLine
10
692
20
150
11
793
21
150
0
LINE
5
41B
100
AcDbEntity
8
separateur
6
ByLayer
62
256
370
-1
100
AcDbLine
10
793
20
150
11
793
21
170
0
LINE
5
41C
100
AcDbEntity
8
separateur
6
ByLayer
62
256
370
-1
100
AcDbLine
10
793
20
170
11
790
21
170
0
LINE
5
41D
100
AcDbEntity
8
separateur
6
ByLayer
62
256
370
-1
100
AcDbLine
10
790
20
170
11
790
21
200
0
LINE
5
41E
100
AcDbEntity
8
separateur
6
ByLayer
62
256
370
-1
100
AcDbLine
10
790
20
150
11
695
21
150
0
LINE
5
41F
100
AcDbEntity
8
separateur
6
ByLayer
62
256
370
-1
100
AcDbLine
10
695
20
150
11
695
21
120
0
LINE
5
420
100
AcDbEntity
8
separateur
6
ByLayer
62
256
370
-1
100
AcDbLine
10
695
20
120
11
692
21
120
0
LINE
5
421
100
AcDbEntity
8
separateur
6
ByLayer
62
256
370
-1
100
AcDbLine
10
692
20
120
11
692
21
100
0
LINE
5
422
100
AcDbEntity
8
separateur
6
ByLayer
62
256
370
-1
100
AcDbLine
10
692
20
100
11
793
21
100
0
LINE
5
423
100
AcDbEntity
8
separateur
6
ByLayer
62
256
370
-1
100
AcDbLine
10
793
20
100
11
793
21
120
0
LINE
5
424
100
AcDbEntity
8
separateur
6
ByLayer
62
256
370
-1
100
AcDbLine
10
793
20
120
11
790
21
120
0
LINE
5
425
100
AcDbEntity
8
separateur
6
ByLayer
62
256
370
-1
100
AcDbLine
10
790
20
120
11
790
21
150
0
LINE
5
426
100
AcDbEntity
8
separateur
6
ByLayer
62
256
370
-1
100
AcDbLine
10
790
20
100
11
695
21
100
0
LINE
5
427
100
AcDbEntity
8
separateur
6
ByLayer
62
256
370
-1
100
AcDbLine
10
695
20
100
11
695
21
70
0
LINE
5
428
100
AcDbEntity
8
separateur
6
ByLayer
62
256
370
-1
100
AcDbLine
10
695
20
70
11
692
21
70
0
LINE
5
429
100
AcDbEntity
8
separateur
6
ByLayer
62
256
370
-1
100
AcDbLine
10
692
20
70
11
692
21
50
0
LINE
5
42A
100
AcDbEntity
8
separateur
6
ByLayer
62
256
370
-1
100
AcDbLine
10
692
20
50
11
793
21
50
0
LINE
5
42B
100
AcDbEntity
8
separateur
6
ByLayer
62
256
370
-1
100
AcDbLine
10
793
20
50
11
793
21
70
0
LINE
5
42C
100
AcDbEntity
8
separateur
6
ByLayer
62
256
370
-1
100
AcDbLine
10
793
20
70
11
790
21
70
0
LINE
5
42D
100
AcDbEntity
8
separateur
6
ByLayer
62
256
370
-1
100
AcDbLine
10
790
20
70
11
790
21
100
0
LINE
5
42E
100
AcDbEntity
8
separateur
6
ByLayer
62
256
370
-1
100
AcDbLine
10
790
20
50
11
695
21
50
0
LINE
5
42F
100
AcDbEntity
8
separateur
6
ByLayer
62
256
370
-1
100
AcDbLine
10
695
20
50
11
695
21
20
0
LINE
5
430
100
AcDbEntity
8
separateur
6
ByLayer
62
256
370
-1
100
AcDbLine
10
695
20
20
11
692
21
20
0
LINE
5
431
100
AcDbEntity
8
separateur
6
ByLayer
62
256
370
-1
100
AcDbLine
10
692
20
20
11
692
21
0
0
LINE
5
432
100
AcDbEntity
8
separateur
6
ByLayer
62
256
370
-1
100
AcDbLine
10
793
20
0
11
793
21
20
0
LINE
5
433
100
AcDbEntity
8
separateur
6
ByLayer
62
256
370
-1
100
AcDbLine
10
793
20
20
11
790
21
20
0
LINE
5
434
100
AcDbEntity
8
separateur
6
ByLayer
62
256
370
-1
100
AcDbLine
10
790
20
20
11
790
21
50
0
LINE
5
435
100
AcDbEntity
8
separateur
6
ByLayer
62
256
370
-1
100
AcDbLine
10
793
20
0
11
692
21
0
0
LINE
5
436
100
AcDbEntity
8
separateur
6
ByLayer
62
256
370
-1
100
AcDbLine
10
695
20
180
11
695
21
200
0
LINE
5
437
100
AcDbEntity
8
separateur
6
ByLayer
62
256
370
-1
100
AcDbLine
10
695
20
230
11
695
21
250
0
LINE
5
438
100
AcDbEntity
8
separateur
6
ByLayer
62
256
370
-1
100
AcDbLine
10
695
20
280
11
695
21
300
0
LINE
5
439
100
AcDbEntity
8
tracés
6
ByLayer
62
256
370
-1
100
AcDbLine
10
104
20
329
11
114
21
329
0
LINE
5
43A
100
AcDbEntity
8
tracés
6
ByLayer
62
256
370
-1
100
AcDbLine
10
104
20
349
11
114
21
349
0
LINE
5
43B
100
AcDbEntity
8
tracés
6
ByLayer
62
256
370
-1
100
AcDbLine
10
104
20
369
11
114
21
369
0
LINE
5
43C
100
AcDbEntity
8
tracés
6
ByLayer
62
256
370
-1
100
AcDbLine
10
101
20
386
11
111
21
386
0
LINE
5
43D
100
AcDbEntity
8
tracés
6
ByLayer
62
256
370
-1
100
AcDbLine
10
101
20
349
11
107
21
349
0
LINE
5
43E
100
AcDbEntity
8
tracés
6
ByLayer
62
256
370
-1
100
AcDbLine
10
107
20
349
11
107
21
329
0
LINE
5
43F
100
AcDbEntity
8
tracés
6
ByLayer
62
256
370
-1
100
AcDbLine
10
107
20
329
11
101
21
329
0
LINE
5
440
100
AcDbEntity
8
tracés
6
ByLayer
62
256
370
-1
100
AcDbLine
10
101
20
329
11
101
21
349
0
LINE
5
441
100
AcDbEntity
8
nord
6
ByLayer
62
256
370
-1
100
AcDbLine
10
107
20
329
11
101
21
329
0
LINE
5
442
100
AcDbEntity
8
nord
6
ByLayer
62
256
370
-1
100
AcDbLine
10
101
20
329
11
101
21
349
0
LINE
5
443
100
AcDbEntity
8
nord
6
ByLayer
62
256
370
-1
100
AcDbLine
10
101
20
349
11
107
21
349
0
LINE
5
444
100
AcDbEntity
8
nord
6
ByLayer
62
256
370
-1
100
AcDbLine
10
107
20
349
11
107
21
329
0
LINE
5
445
100
AcDbEntity
8
nord
6
ByLayer
62
256
370
-1
100
AcDbLine
10
107
20
369
11
101
21
369
0
LINE
5
446
100
AcDbEntity
8
nord
6
ByLayer
62
256
370
-1
100
AcDbLine
10
101
20
369
11
101
21
386
0
LINE
5
447
100
AcDbEntity
8
nord
6
ByLayer
62
256
370
-1
100
AcDbLine
10
101
20
386
11
107
21
386
0
LINE
5
448
100
AcDbEntity
8
nord
6
ByLayer
62
256
370
-1
100
AcDbLine
10
107
20
386
11
107
21
369
0
LINE
5
449
100
AcDbEntity
8
nord
6
ByLayer
62
256
370
-1
100
AcDbLine
10
202
20
329
11
208
21
329
0
LINE
5
44A
100
AcDbEntity
8
nord
6
ByLayer
62
256
370
-1
100
AcDbLine
10
208
20
329
11
208
21
349
0
LINE
5
44B
100
AcDbEntity
8
nord
6
ByLayer
62
256
370
-1
100
AcDbLine
10
208
20
349
11
202
21
349
0
LINE
5
44C
100
AcDbEntity
8
nord
6
ByLayer
62
256
370
-1
100
AcDbLine
10
202
20
349
11
202
21
329
0
LINE
5
44D
100
AcDbEntity
8
nord
6
ByLayer
62
256
370
-1
100
AcDbLine
10
202
20
369
11
208
21
369
0
LINE
5
44E
100
AcDbEntity
8
nord
6
ByLayer
62
256
370
-1
100
AcDbLine
10
208
20
369
11
208
21
386
0
LINE
5
44F
100
AcDbEntity
8
nord
6
ByLayer
62
256
370
-1
100
AcDbLine
10
208
20
386
11
202
21
386
0
LINE
5
450
100
AcDbEntity
8
nord
6
ByLayer
62
256
370
-1
100
AcDbLine
10
202
20
386
11
202
21
369
0
LINE
5
451
100
AcDbEntity
8
tracés
6
ByLayer
62
256
370
-1
100
AcDbLine
10
280
20
-20
11
290
21
-20
0
LINE
5
452
100
AcDbEntity
8
tracés
6
ByLayer
62
256
370
-1
100
AcDbLine
10
290
20
-40
11
300
21
-40
0
LINE
5
453
100
AcDbEntity
8
tracés
6
ByLayer
62
256
370
-1
100
AcDbLine
10
290
20
-60
11
300
21
-60
0
LINE
5
454
100
AcDbEntity
8
sud
6
ByLayer
62
256
370
-1
100
AcDbLine
10
202
20
-20
11
208
21
-20
0
LINE
5
455
100
AcDbEntity
8
sud
6
ByLayer
62
256
370
-1
100
AcDbLine
10
208
20
-20
11
208
21
-40
0
LINE
5
456
100
AcDbEntity
8
sud
6
ByLayer
62
256
370
-1
100
AcDbLine
10
208
20
-40
11
202
21
-40
0
LINE
5
457
100
AcDbEntity
8
sud
6
ByLayer
62
256
370
-1
100
AcDbLine
10
202
20
-40
11
202
21
-20
0
LINE
5
458
100
AcDbEntity
8
sud
6
ByLayer
62
256
370
-1
100
AcDbLine
10
202
20
-60
11
208
21
-60
0
LINE
5
459
100
AcDbEntity
8
sud
6
ByLayer
62
256
370
-1
100
AcDbLine
10
208
20
-60
11
208
21
-77
0
LINE
5
45A
100
AcDbEntity
8
sud
6
ByLayer
62
256
370
-1
100
AcDbLine
10
202
20
-77
11
202
21
-60
0
LINE
5
45B
100
AcDbEntity
8
sud
6
ByLayer
62
256
370
-1
100
AcDbLine
10
107
20
-20
11
101
21
-20
0
LINE
5
45C
100
AcDbEntity
8
sud
6
ByLayer
62
256
370
-1
100
AcDbLine
10
101
20
-20
11
101
21
-40
0
LINE
5
45D
100
AcDbEntity
8
sud
6
ByLayer
62
256
370
-1
100
AcDbLine
10
101
20
-40
11
107
21
-40
0
LINE
5
45E
100
AcDbEntity
8
sud
6
ByLayer
62
256
370
-1
100
AcDbLine
10
107
20
-40
11
107
21
-20
0
LINE
5
45F
100
AcDbEntity
8
sud
6
ByLayer
62
256
370
-1
100
AcDbLine
10
107
20
-60
11
101
21
-60
0
LINE
5
460
100
AcDbEntity
8
sud
6
ByLayer
62
256
370
-1
100
AcDbLine
10
101
20
-60
11
101
21
-77
0
LINE
5
461
100
AcDbEntity
8
sud
6
ByLayer
62
256
370
-1
100
AcDbLine
10
107
20
-77
11
107
21
-60
0
LINE
5
462
100
AcDbEntity
8
sud
6
ByLayer
62
256
370
-1
100
AcDbLine
10
101
20
-77
11
6
21
-77
0
LINE
5
463
100
AcDbEntity
8
sud
6
ByLayer
62
256
370
-1
100
AcDbLine
10
303
20
-77
11
208
21
-77
0
LINE
5
464
100
AcDbEntity
8
sud
6
ByLayer
62
256
370
-1
100
AcDbLine
10
202
20
-77
11
107
21
-77
0
ENDSEC
0
SECTION
2
OBJECTS
0
DICTIONARY
5
C
330
0
100
AcDbDictionary
281
1
3
ACAD_GROUP
350
D
0
DICTIONARY
5
D
330
C
100
AcDbDictionary
281
1
0
ENDSEC
0
EOF
